<?xml version="1.0" encoding="utf-8"?>
<!-- Generator: Adobe Illustrator 24.0.1, SVG Export Plug-In . SVG Version: 6.00 Build 0)  -->
<svg version="1.1" id="Layer_1" xmlns="http://www.w3.org/2000/svg" xmlns:xlink="http://www.w3.org/1999/xlink" x="0px" y="0px"
	 viewBox="0 0 100 100" style="enable-background:new 0 0 100 100;" xml:space="preserve">
<style type="text/css">
	.st0{fill:#F28424;fill-opacity:0.8;}
</style>
<g>
	<path class="st0" d="M91.9,36.1c-2.9-2.1-6.4-3-9.9-3H48.5c-1.3,0-2.5,0-3.8,0c-0.2,0-0.3,0-0.5,0c-2.6,0.3-4.9,2.3-5.5,4.8
		c-0.2,1-0.2,1.9-0.2,2.9v13.8H8.1V28.5c0-2.3,0-4.6,0-6.9c0,0,0-0.1,0-0.1c0-1.8-1.6-3.6-3.5-3.5C2.6,18.1,1,19.6,1,21.5v49.9
		c0,2.3,0,4.6,0,6.9c0,0,0,0.1,0,0.1c0,1.8,1.6,3.6,3.5,3.5c1.9-0.1,3.5-1.6,3.5-3.5V61.8h83c0.3,0,0.6,0,0.8,0v16.7
		c0,1.8,1.6,3.6,3.5,3.5c1.9-0.1,3.5-1.6,3.5-3.5V49.6C99,44.2,96.3,39.2,91.9,36.1z"/>
	<path class="st0" d="M32.5,42.1c-0.1-3.9-2.5-7.3-6.2-8.6c-3.4-1.3-7.6-0.1-9.9,2.7c-2.5,3-3,7.3-0.9,10.6c2,3.4,6,5,9.8,4.3
		c4.2-0.8,7.1-4.7,7.2-8.8C32.5,42.3,32.5,42.2,32.5,42.1C32.5,42.2,32.5,42.2,32.5,42.1z"/>
</g>
</svg>
