<svg id="Layer_1" data-name="Layer 1" xmlns="http://www.w3.org/2000/svg" viewBox="0 0 1096.66 876.4">
  <defs>
    <style>
    	.spain {fill:#fdfcea}
      .spain{fill:#f29c2e}
      .cls-3{fill:#f4a745}
    </style>
  </defs>
  <g id="Layer_2" data-name="Layer 2">
    <path id="Seville" d="M275 709.6a2 2 0 0 0-.7.1c-.5.1-1 .3-1.4.4h-.6a.78.78 0 0 1-.4-.4 2.15 2.15 0 0 1-.2-1 12.83 12.83 0 0 1 .1-1.8 4.79 4.79 0 0 1 1.1-1.5c.5-.5 1.1-1 1.6-1.6a8 8 0 0 0 1.3-1.9 5 5 0 0 0 .2-1.2 7.84 7.84 0 0 0-.2-1.4 2.17 2.17 0 0 0 1.2.2 13.12 13.12 0 0 0 1.5-.3c1.1-.4 2.3-1 3.6-1.6s2.8-1.3 4.2-1.8l2.2-.6a16.2 16.2 0 0 1 2.2-.1 4 4 0 0 1 1.5-.1 3.54 3.54 0 0 1 1.1.3 4.36 4.36 0 0 1 1.4 1.3c.2.2.3.4.5.5s.3.2.5.2a1.33 1.33 0 0 0 .7-.3 4.64 4.64 0 0 0 1-1 15.56 15.56 0 0 1-.1-2 5.67 5.67 0 0 1 .3-1.5 8.79 8.79 0 0 1 .6-1 4.05 4.05 0 0 1 .9-.5 3.4 3.4 0 0 1 1-.1 4.51 4.51 0 0 1 1.1.3c.4.2.7.4 1.1.6s.7.5.9.9a2.18 2.18 0 0 0 .9-.7 3 3 0 0 0 .4-1 2.44 2.44 0 0 0 0-1.2 6.11 6.11 0 0 0-.3-1.3c-.3-.9-.7-1.8-1.1-2.7s-1-1.7-1.4-2.4a15.06 15.06 0 0 0 1.8-1.8 3.78 3.78 0 0 0 .7-1.1.45.45 0 0 0-.2-.6 1.61 1.61 0 0 0-.7-.4 8.36 8.36 0 0 1-2-.8 1.78 1.78 0 0 1-.7-.8 9.05 9.05 0 0 1-1.2-2.2l.8-.9.6-.4.6-.6 1.3-.9.6-.6.8-.3.6-.5.7.1 2.4-.4.7-.5 1.5-.7.8-.1.8.1.8.4h.8l1.3-.9.7-.3 1-.1.6.2.3-.1.5-.1.6-.5.6-.6.5-.9v-1.5l.3-.7 1-1.2.6-.5.2-.8v-.8l-.2-.8-1.1-1.2.1-.8 1.1-2.3.6-.6.7-.4.8-.2.7-.3.6-.5.8-1.3.7-1.6.5-.6.7-.3.7.5.6-.5.5-.6.7.4h.7l.5-.6.7-.2 1.6.4.8-.2.6-.6.8-.1.5.6.6.4.6.6.4.7.5.6.9 1.3-.6.6-.7.2-.7.5-.8.2-1.3.8.3 1.5.2.7.2.8-.2.7 1.2 1 1.5.3.8-.5.5-.6 1.3-.8.7-1.4.7-.5.5-.6.5-.8.6-.6h.8l.7.3h.7l.7.3h.9l.1-.2c.1.2.1.5.2.7a18.35 18.35 0 0 0 2.3 2.9 9.39 9.39 0 0 1 1.4 1.8 19.08 19.08 0 0 0 1.5 2.1c.5.6 1.1 1.2 1.8 1.9.3.4.5.7.7 1a2.92 2.92 0 0 1 .2.9 10.21 10.21 0 0 0 .1 2.4 23.32 23.32 0 0 0 .5 2.7 5.78 5.78 0 0 0 .5 1.4 1.55 1.55 0 0 0 .8.8 5.64 5.64 0 0 1 1.2.4 7.46 7.46 0 0 1 1.2.7 4.3 4.3 0 0 1 .9 1 2.84 2.84 0 0 1 .4 1.3 7.22 7.22 0 0 0 .5 2.7c.2.8.5 1.6.7 2.5a8.11 8.11 0 0 0 .3 1.1 1.79 1.79 0 0 0 .5.7 1.61 1.61 0 0 0 1.1.5 4.48 4.48 0 0 0 1.1.1c.2 0 .3.1.5.2s.3.2.4.4a2.74 2.74 0 0 1 .2 1.3 7.84 7.84 0 0 1-.2 1.4 7.84 7.84 0 0 0-.2 1.4 2.54 2.54 0 0 0 .2 1.2 19.38 19.38 0 0 0 1.6 1.7l1 1c.2.3.4.5.4.7 0 1.9 0 2.3.1 2.4s.2.1.4.3a3 3 0 0 1 .9 1 3.49 3.49 0 0 1 .5 1.3 5.28 5.28 0 0 1-.1 1.3 1.93 1.93 0 0 1-.5.9.37.37 0 0 1-.3.1c-.1 0-.2-.1-.4-.2-.5-.5-.8-.7-1.1-.7a1.23 1.23 0 0 0-.8.4c-.3.2-.5.5-.9.8a4.58 4.58 0 0 1-1.4.7c-.3.1-.8 0-1.3.1a3.64 3.64 0 0 0-1.5.2l-.6.3a.92.92 0 0 0-.4.6 1.35 1.35 0 0 0 0 .9 3.82 3.82 0 0 0 .4 1.3 8.58 8.58 0 0 1 .3 1.7v1.8a4.64 4.64 0 0 0 .2 1.4c.1.2.2.3.4.3a1.15 1.15 0 0 0 .6 0 1.67 1.67 0 0 1 1.3.3 4.49 4.49 0 0 1 1.3 1.1 2.4 2.4 0 0 1 .6 1.5 1.7 1.7 0 0 1-.1.7c.2-.4.5-.9 1.2-2a18.91 18.91 0 0 1 2.2-2.9 15.68 15.68 0 0 0 2.5.4 2.28 2.28 0 0 0 1.1-.3 3.54 3.54 0 0 0 1.2-1c.6-.6 1.3-1.5 2-2.3a12 12 0 0 1 1.2-1.1 3.38 3.38 0 0 1 1.2-.6 2.53 2.53 0 0 1 1.5 0 2.7 2.7 0 0 1 .8.7 1.34 1.34 0 0 0 .7.6 1.23 1.23 0 0 0 1-.1 2.9 2.9 0 0 0 .8-1 8.8 8.8 0 0 0 .5-1.5 7.26 7.26 0 0 1 .5-1.2c.1-.1.2-.2.3-.2s.2.1.3.2a9.56 9.56 0 0 1 1.5 2.2 7.71 7.71 0 0 0 1.4 2.1 8.06 8.06 0 0 1 1.2 1.8 12.74 12.74 0 0 0 1.3 1.9 23.14 23.14 0 0 0 2.1 1.9c.4.3.7.5.8.4s.1-.4-.3-1.1c-.6-1.2-1.4-2.4-2.1-3.7a1.7 1.7 0 0 0-.6-.6 8.79 8.79 0 0 0-1-.6 7.26 7.26 0 0 1-.9-.5c-.2-.2-.4-.4-.4-.6a8.57 8.57 0 0 1 .5-2.7 13.39 13.39 0 0 1 .6-1.2 2.36 2.36 0 0 1 .9-.8 7.26 7.26 0 0 1 1.4-.6 1.38 1.38 0 0 1 .9 0c.5.2.9.7 1.6 1.5.3.3 1.1 1.2 1.9 2.2a9.38 9.38 0 0 1 1 1.4c.2.4.4.8.3 1a12.53 12.53 0 0 0-.3 2.7v1.4c0 .1 0 .2.1.2s.1.1.1.2a.19.19 0 0 0 .3 0 3.74 3.74 0 0 1 1.5-.5 1.22 1.22 0 0 1 .9.3 1.53 1.53 0 0 1 .4 1 10.9 10.9 0 0 1-.1 1.7 12.54 12.54 0 0 1-.9 2.5 6.47 6.47 0 0 0-.4 1.3 6.88 6.88 0 0 0-.2 1.3 2.46 2.46 0 0 0 .5 1.5 4.74 4.74 0 0 0 1 1 4.36 4.36 0 0 1 1 .8 1 1 0 0 1 .5.8v2.1a9.23 9.23 0 0 0 .5 2.5 3.09 3.09 0 0 0 .9 1.2 1.4 1.4 0 0 0 .9.3h1.1a3 3 0 0 1 1.4.4 3.27 3.27 0 0 1 1.2.9 1.13 1.13 0 0 1-.1.8c-.1.3-.3.6-.4.9a1.85 1.85 0 0 0 .2 1.4 6.54 6.54 0 0 1 .4 2.1 3.55 3.55 0 0 0 .2 1 1.34 1.34 0 0 0 .6.7 4.37 4.37 0 0 1 .8.7 10.47 10.47 0 0 1 .8 1.1c.3.4.6.7.8 1a3.28 3.28 0 0 0 .8.6 2.23 2.23 0 0 0 1.1-.1c.4-.2.9-.4 1.3-.6s.9-.4 1.3-.6a1.83 1.83 0 0 1 .9-.2 6.66 6.66 0 0 1 1.1.6c.3.1.7.3 1 .4a4.25 4.25 0 0 0 1.1.2 1.9 1.9 0 0 1 .9.3 7.46 7.46 0 0 1 1.2.7 1.89 1.89 0 0 1 .8 1 1.69 1.69 0 0 1 .2.5.75.75 0 0 1-.1.5c-.2.3-.7.7-1 1.2a2.51 2.51 0 0 0-.4.7 1.49 1.49 0 0 0 .2.9 22.63 22.63 0 0 1 1.3 2l.3.9a1.45 1.45 0 0 1-.7.2c-.8 0-1.7-.1-2.6-.1a14.12 14.12 0 0 0-2.2.1 9.25 9.25 0 0 0-.7 2 13.93 13.93 0 0 0-.5 2.3 1.28 1.28 0 0 0 .4 1c.2.2.4.5.6.6s.2.4 0 .6a5 5 0 0 1-1.2.9 22.63 22.63 0 0 0-2 1.3c-.6.5-1.3 1-1.9 1.5a.76.76 0 0 1-.4.2c-.1 0-.2-.1-.4-.2a3.51 3.51 0 0 1-.7-.9 14.32 14.32 0 0 1-.9-1.9 4.45 4.45 0 0 1-.6-1.2 2.77 2.77 0 0 1-.1-.9.73.73 0 0 0-.2-.6 2.23 2.23 0 0 0-1-.5 1.09 1.09 0 0 0-.5.1 2.19 2.19 0 0 1-.5.3 7.3 7.3 0 0 0-.9 1.3c-.5 1-1 2.2-1.2 2.6s-.5.7-.7.7a1.08 1.08 0 0 1-.7-.3 10.14 10.14 0 0 1-1-1.6 1.54 1.54 0 0 0-.7-.7 1.33 1.33 0 0 0-.7.3c-.4.4-.8 1.1-1.3 1.6a1.2 1.2 0 0 0-.4.8c0 .2.2.3.4.5a8 8 0 0 1 1.8 1.2 3 3 0 0 1 .5.7 1.85 1.85 0 0 1 .2.7 3.53 3.53 0 0 1-.3 1.4 3.81 3.81 0 0 1-.9 1.3 5.73 5.73 0 0 1-1.1 1.1 11.92 11.92 0 0 1-1.8 1.5 10.18 10.18 0 0 0-1.8 1.8 1.56 1.56 0 0 1-.8.6c-.3.1-.7.2-1 .3a4.4 4.4 0 0 1-1 .2c-.3.1-.6.2-.7.4-.6.6-1.1 1.2-1.6 1.6a4.65 4.65 0 0 1-2 .9 4.3 4.3 0 0 1-1.6 0 7.72 7.72 0 0 1-1.5-.2 6.55 6.55 0 0 0-1.4 0 2.79 2.79 0 0 0-1.3.7 7.07 7.07 0 0 0-1.2 1.8 5.73 5.73 0 0 0-.4 1.4l-.2.2a3.6 3.6 0 0 1-1.2.8 12.56 12.56 0 0 0-1.9 2.2 7.69 7.69 0 0 1-1.2 1.3c-.4.3-.7.5-.8.4a10 10 0 0 1-2.4-1.5 3.59 3.59 0 0 1-.7-1 5 5 0 0 1-.5-1.6l-.3-1.2a5.21 5.21 0 0 1-1.4-.2 2.62 2.62 0 0 1-.9-.5 4.37 4.37 0 0 1-.6-1c-.1-.4-.3-.9-.4-1.4s-.3-.9-.5-1-.4 0-.6.2a3.49 3.49 0 0 0-.6.9 5.64 5.64 0 0 0-.4 1.2 1.68 1.68 0 0 1-.6 1.1 2.18 2.18 0 0 1-.9.7 9.12 9.12 0 0 0-2.1 1.5c-.3.3-1.1 1.6-1.9 2.7-.4.5-.8 1-1.1 1.4-.2.2-.3.3-.5.3s-.3 0-.4-.1c-.5-.5-.9-.8-1.4-1.3a5.55 5.55 0 0 1-.6-.8 3.58 3.58 0 0 1-.4-1.1 2.63 2.63 0 0 1-.1-1.2.71.71 0 0 1 .3-.6 3.39 3.39 0 0 0 .6-.6 3.48 3.48 0 0 0 .7-1.1 4.06 4.06 0 0 1 .9-1c.2-.2.3-.4.4-.5a1.42 1.42 0 0 0 .2-.6 10.36 10.36 0 0 0-.3-2.8 1.61 1.61 0 0 0-.4-.7c-.2-.1-.4-.1-.8.1a4.12 4.12 0 0 1-.8.3h-.8a6.56 6.56 0 0 0-2 0 5.36 5.36 0 0 0-1.1.5 3.92 3.92 0 0 0-.8 1 1.3 1.3 0 0 0-.2 1 .94.94 0 0 0 .6.8 6.08 6.08 0 0 1 1.6.9 1.79 1.79 0 0 1 .5.7 2.4 2.4 0 0 1 0 1.2 6.78 6.78 0 0 1-.8 1.9 16.61 16.61 0 0 1-1.3 1.4c-.4.4-1.1.9-1.7 1.4a3 3 0 0 0-.8.8 4.05 4.05 0 0 0-.5.9 1.9 1.9 0 0 0 .1 1.3 3.92 3.92 0 0 0 .4.9c.1.2.1.4-.1.4a4.34 4.34 0 0 1-1.3-.2 6.12 6.12 0 0 1-1.2-.5 3.59 3.59 0 0 1-1-.7 3.92 3.92 0 0 1-.8-1 6.12 6.12 0 0 1-.5-1.2c0-.2-.1-.3-.3-.5a2.19 2.19 0 0 0-.5-.3 5.9 5.9 0 0 0-1.4-.2 4.44 4.44 0 0 1-1.3-.2 1.33 1.33 0 0 1-.5-.3.76.76 0 0 1-.2-.5 1.42 1.42 0 0 0-.2-.6 1.76 1.76 0 0 0-.4-.5 2.73 2.73 0 0 0-1.2-.6 5.28 5.28 0 0 0-1.2-.1c-.4.1-.6.2-.6.5-.1.5-.1 1.7-.2 2.7a5.77 5.77 0 0 1-.3 1.4 1.38 1.38 0 0 1-.3.4c-.1.1-.2.1-.4.1-.6-.1-1.6-.5-2.7-.8a8.33 8.33 0 0 0-1.5-.4 2.4 2.4 0 0 0-1.2 0c-1 .2-1.8.4-2.6.6a11.72 11.72 0 0 0-2.4.9l-1.2.6c-.4.2-4.2 1.7-4.2 1.8 0 .4.1 1.7.1 3a4.42 4.42 0 0 1-.2 1.7c-.1.2-.1.4-.2.6s-.2.2-.3.2h-.6a4.87 4.87 0 0 1-1.2-.1 1.27 1.27 0 0 1-.6-.1 20 20 0 0 1-2.6-.5 11.76 11.76 0 0 0-2.1-.3h-2.4a16.41 16.41 0 0 1-2.3-.2 20.69 20.69 0 0 1-2.2-.4 14.27 14.27 0 0 1-2.2-.8c-.7-.3-1.5-.7-2.2-1s-5.3-2-6-2.5a6.73 6.73 0 0 0-1.1-.7 1.42 1.42 0 0 0-.6-.2l.6-.3.1-.1 1.5-1.3.7-.9.5-1.1 1-3.3 1.1-4.9.2-.4.4-1 1-.8 1-.3 1.8-1.1.9-1 .4-.8-.1-.2-1 1-1.3 1.1-1 .5-.6.2h-.1l-.6.2-.7.9-.7 1.5-.3 1.6-.8 2-.3 2.2-.8 1.9-.7 1.4-.1.3-.8 1-.6.4-.8.4-1 .1-.6-.1-.8-.5-.4-.6v-.5l.4-2-.4.4-.4 1.6-.4.3-1 .2-2.6.5-.4.2-.6.3-.5.5-.3.7h-.1c-.1-.3-.2-.7-.3-1-.2-.5-.5-.9-.7-1.4a10.09 10.09 0 0 1-.7-1.5 4.71 4.71 0 0 1-.4-1.7 8.22 8.22 0 0 1 .2-2.1 9.76 9.76 0 0 1 1.2-2.6 6.82 6.82 0 0 1-1.7-2.3 4.87 4.87 0 0 1-.6-2.2 7.41 7.41 0 0 1 .1-2.1 15.19 15.19 0 0 1 .6-2c.5-1.3 1.1-2.4 1.5-3.4a2.09 2.09 0 0 0 .2-1.3 1.28 1.28 0 0 0-.4-1 18 18 0 0 0 1-1.8 5.35 5.35 0 0 0 .4-1.6 3.79 3.79 0 0 0 0-1.5 7.72 7.72 0 0 0-.2-1.5 26.13 26.13 0 0 1-.6-3.2 11.48 11.48 0 0 1-.1-1.9 8.92 8.92 0 0 1 .3-2.2 3.92 3.92 0 0 0 .8-1.4 3.79 3.79 0 0 0 0-1.5 9.36 9.36 0 0 0-.4-1.6c-.2-.5-.4-1.1-.6-1.6a13.1 13.1 0 0 1-1.1-2.9 5.28 5.28 0 0 1-.1-1.2 1.52 1.52 0 0 1 .6-1 5.85 5.85 0 0 1 .4-1.9 4.11 4.11 0 0 1 .8-1.3 15.66 15.66 0 0 1 2.1-1.7 3 3 0 0 0 .8-.8 1.69 1.69 0 0 0 .3-1 3 3 0 0 0-.4-1.4 13 13 0 0 0-1.3-1.9c-1-2.3-2.3-4.3-3.3-6.3a16.92 16.92 0 0 1-1.3-3.1 12.86 12.86 0 0 1-.5-3.5 2 2 0 0 0 .2-1 1.37 1.37 0 0 0-.5-.8 8.79 8.79 0 0 0-1-.6 5 5 0 0 0-1.3-.4 14.07 14.07 0 0 0-2.8-.3 6.25 6.25 0 0 0-1.8.2c-.5 1-.7.9-.9.9z" transform="translate(-32.1)" fill="#29508c"/>
    <path id="Spain" class="spain" d="M1063.8 216.8l-.6-.1-.3-.4h-.6l-.4-.3-.5.2-.8-.8-.1-.4h-.5l-.6-.5h-.1l-.2.6h-.5l-.4.5-.2-.3-.4-.2-.3-.4.1-.6-.4-.4-.9.1-.5-.3-.4.2h-.8l-.2.4.2.6-.3.4h-.2l-1-1 .2-.5-.7-.2-1.1-1.2.2-.4-.1-.2-.5-.1-.2-.2.1-.2-.2-.6.1-.5.5-.6-.1-.1h-.4l-.2-.3.6-.9-.2-.1-.4.1v-.2l1.1-1.1.1-.6-.1-.2-.4-.1-.1-.2.7-.7-.8-.3h-2l-.8-.1h-.9l-.4.3-.4.4-.1.2-.3.2-.4-.1-.8-.2-.8-.6-.2-.1-.6-.9-1-.8-.4-.9-.3-.7-.2-.7-.2-.1h-.4l-.5.3-.8.5-.6-.1-.3-.2-2.8.8-.7-.3h-1.1l-1.9 1.1-.5.2-.9.1-2.1-.3-.8-.1-.6.1-.7.5-2.9 2.7-.8 1.5-.6.4h-1.7l-2.6-.6h-.8l-1.6.4-.9.2-1.4.9-1.5 1.5-.7.4-.3.5.4 1.4 1.2 1.3.3.6.1.4-.2.3-.5.3-1 .1-1-.1-.7-.1-2.8-.9-2.3-.4h-1l-2.1 1.3-1.1.1-.9-.2H998l-.8-.5-2.6-1.4-.5-.3-.2-.4-.5-.4-1.9-2.2-5.5-1.9-1.2-.6-1.9-1.3-4-.5-1.6.3-.9.4-.7.6-1.1.4h-.7l-.6-.2-1-.4-2.1-.1-1.5 1.5-1.7 2.7-1.5 1.3-1.8 1-.9.2-.9.2-1.2.1-1.3-.1-.8-.2-.5-.5-2.2-1.1-.5-.5-.4-1 .1-1.2-.3-.9-.4-1.2-.4-.8-.1-.7-.8-1-.9-.7-.9-.1-.8.4-.7-.1-3.1-1.9-1.2-1.2-1.4-.9h-4.8l-2.6-.8-.6-.6-1.2.8-.6.4-.7-.1-1.5-1h-.3l-.2.2-.4 1.3.1.3-1.5 1.6-1.4.2-2 .8-1.1.7-1.4-.1-1.9 1.5-2.5.5h-.2l-3.2-.4h-.4l-.5-.2-1-.8-.3-2-1.4-1.6v-.3l.1-.6 2.2-1.8.2-.3.1-.6-.1-.5-1.3-2-.5-.1-1 .2-.4-.2-.1-1.3.6-1 .3-1.2-.5-1.2v-.4l.7-.6.3-1-2-4.9-2.3-3.9-1.7-1.2-.4-.5v-.7l-.9-.8h-5l-2.8.2-1.5-.5h-.7l-1.7.4-.8.4-1.4.6-.5.1-.9-.2-1.6-1.3-.7-1.3-.4-1.5-.5-.5-1.9-2.1-.9-.7-3-.1-.8-.3-2.3.2-1.3-.1-1.5-.6-.5-1.1-.7-.3-.4.1-1.3 1.1-.5.2-2.2-.8-2-1.4-3-1.5-1.6-.5-2.7-.8-1.7-.2-2.5-1.1-3.1-1.4-1.1.3-.9 1.5-.9.7.1 2.7-.2.9-1.5 1.8v.5l1.2.8-.3 1.1-.2.3-.1.6.7 1.2.1.7.1.6.6 1.2v2l.5 1.1-.1.8h-.5l-2-.8-3.2-.7-1.6.1-.6.1-4.5-.2-1 .3-.8.1-1.8-.2-3.1.3-1.7-.1-1.1-.4-1.8-1.8-1.1-.6-.7-.1-.6.3-1.9 2.6-1.4 1.3-.8.5-1.2.3-.5-.3-.7-1.4-.2-.9-.8-1.1-.8-.6-.5-.1-1.3-.2-2.1-1.4-.8-.4h-.8l-1.2.6-2.7 2.4-.7.2-1.4.1-1.8-.5-1-.1-2.2.9-1.1-.3h-.5l-1.5.9-.6.1h-.2l-.9.2-1.4-.3-1.8-.4-.3-.4-.4-1.6-.3-.6-.8-.3-1.4-.2h-.2l-.4-.2-.3-.4-.5-2.2-1.6-2.4-.2-.3-.4-1.5-.2-.6-.3-.6h-.2l-.8.8-.9.6-1.1.2-.5-.1-1.7-1-.5-.5-.1-.1-1.3-2-1 .1h-.1l-1.3-.3-2.2-1.5-1.2.2-3.1 1h-.6l-.5.2-2.5 1.9-.8.3-.5.2h-1l-1.6.4h-1.2l-.4-.3-.8-1.5H758l-1-.8-.5-.1-.6.2-.9 1.2-.6 1.5-.5.7-.6.2-1.4.3-.6-.3-.4-.5-.3-1-.2-.6-1.5-.1-.4-.3-.4-1-.5-.9-.4-.2-2.9-3.3-1.3-1.5-1.2-.7h-1.3l-1-.5-1.3-2.4v-.2l-.3-1.8-.8-2.1-1.1-1.1-.8-.5-.6-.1-.5.1-1.6.8-1.1.3-3.2.2h-1.5l-1.9-.3-1.2.3-1.6.2-3-1.2-.8-.9-2.5-1.8-3.4-.1-1.2-.5-.7-.3-1-.9-1.6-1.4h-.8l-.5.9-.7.8-.5-.3-.7-1.7-.7-.5-1.3-.1-1-.4-.8-.3-.7-.5-.5-1-.9-.3-1.4.5-1.3-.1-1.3-.9-2.1-.9-.7-.6.4-1.4.7-1.3-.2-.2.1-.7.6-.5v-.4l-.4-.2-2.5 1.1-.6.5-.5 1.5-.5 4.1-.6.9-.7.8-2.4-.4-.6-.2-2-.5-1.5-.9-1.8-1.5-.9-1.7-.3-1.4 1.5-.8 1.8-1.4.5-.5.8-1.2.6-2.2-.1-1.1.2-1.3 1.4-1.8.4-1.5-.2-2.1.2-.8-.1-1.1-.4-1-1.4-1.3-.7-.1-1.8.1-1.4.4-.7-.1-.6-.3-2.2-2-.8-.1-2.9.2-.5.2-.5 1.5-.7 1.1-1.3.7-1.6.1-1.2-.4-.5-.3-.4-1.6v-1.9l.1-.5-.1-.6-.1-.4-.6-.3h-2.7l-1.7.2-.6.1-1.2.6-.7.4-.5-.5-.2-.7-.1-.8.1-1.1-.3-.6-.8-.1-.1-.5-.3-.4-.6.2h-.5l-.8-.4-.5-.5-.2-.2-.1-.2.4-.6-.1-.3-.4.1-.3-.3.2-.3-.4-1 .5-.9v-.2l-.1-.2-1.9.7-.9.1-1 .6-1.2.3-1.2.8-1.2 2h-.7l-.8.6-1.4.3-.3.4.3.7h-.2l-.5-.8-.6-.1-.9.4h-.4l-.6-.4h-.4l-.9 1.2-.2.2-.1-.1-.3-.2-.4.1-.2.4.1.5-.5.3-.3-.1h-.1l-.2-.6-.4-.2-2.8.5-.9.5-.9.2-.9.5h-.8l-1 .5h-1.1l-.6.6-.7.7-.5-.1-.7-.4h-1l-.4.2-.9.8-.3-.1-.4-.6h-.5l-.5-.6-1-.6-1.8-.6-.6.2-.2.5-.6.4-.7-.7-.2.2-.4.4-1.8.5h-.9l-2.6-.4-1.3-.5-.5.3-1.3-.7h-.6l-.5-.2-.4-.7-1.4-.7h-1.3l-.3-1-1.3-.2-1.7-.8-.5-1-1.3-.7-.3-.6-.3-.1-.5.2-.4-1-.3-.2-2.9.1-.5-.3-.6-1-.3-.2-1.3.2-.5-.1-1.9-.7h-.5l-.8-.2-1-.5-.1-.4v-.8l-.2-.2h-.8l-.7.4-1.3-.1-.5.3-.3.7.2 1.4.4.7.1.8.3.5v.5l.9 1.3-.1.7-.3-.2-.2-.8-.7-.7-.1-.9-.4-.9-.3-.3.1-1.1-.5-.9-.5-1.6-1.3-.5-.5-.7-1-.1-.9-1.5v-1l-.4-.1-2.2 1-1.2.1-.6.4-.5.8-.7-.2-1.9-.2h-1.5l-2.2-.3-.7.3-1.2-.4-1.2.4-1.2-.1h-.2l-.3.4.2 2.4.1.9-.5-.4v-.4l-.3-.4-1.1-.1-1.1 1.4-.7.5-.6.7-.7.4h-.9l-1 .5-.2.6.1.4.8 1.3.1.4.1.1.2.2.1.2.2 1 .2 1 .2.2.2.2.1.2.9.6.6.4.3.2.1.3-.5-.1h-.2l-.5-.2-.1-.1-.1-.1-.4-.2-.2-.2-.1-.1-.1-.1-.7-.9-.2-.2-.9-.6-.2-.1-1-.3-.4-.2-1.8-1-.7-.7-1.6-.9-.4.1-.4.3-.2 1-.3.2-.5-.1-.5-.3-1 .3-.7-.2h-1l-1-.3-.3-.4-.2-.2-.5-.2-.6-.2-.4-.7-.7-.5-.4.1-.4-.3-.2-.7-.4-.3.2-.6.1-.1-.1-.2-2.6-.9-.2-.1H534l-1.4-.3-.5-.1-.5-.1-.3.2-.3.5v.1l-.1 1-.4.4-.1-.3.1-.3-.3-.4.1-.2.1-.4-.1-.6.3-.6-.1-.2-.3.2-.6.3-.5-.2h-.1l-2 .2-.6-.3h-.4l-2.6.1-.1.1-.4.3-.2.1h-.4l-.5-.2-.1-.1-.4-.5-.1-.3-.4-.8-.1-.2-.2-.2-.3.7.2 1.1-.3.7.1.7-.1.7.2.5 1.1.9.8 1.1v.6l-.7-.1-.6-1.4-1-.8-.5.3-.3.2-.3.2-.1-.5v-.1l.1-.4.1-.5v-.1l-.1-.5v-.2l-.3-.4-.2-.2-.4-1-.5-.2-.3.6-.5-.3-.7-.7-1.5-.1 1.1-1.2 2.1-.4-.4-.9.3-.4.5.7.2-.1-.1-.4.2-.3-.2-.5.2-.3.1-.1h.3l.4.3.2.5.1 1.3v.2l.8.4 1.3-.3.6-.5.1-.3-.1-.6-.4-.8-.2-.1-.4-.2h-1.8l-.3-.1-.4-.1-.6-.4-.1-.1h-.1l-.6.1-.6-.1-.4-.1-.7-.1-.7-.1-.2-.9.2-.6.2-.5-.3-.3h-.5l-1.2.5-.7-.1-.4.1h-.1l-.2-.1.3-.7.1-.2-.3-.8-1-.4-.8.3h-.1l-.9.7-.7 1.9-.3-.3.3-1.1.5-.8.2-.4-.2-.4h-.5l-.7.3-.1.1-.7.8-.2.2-.2.2h-2.8l-.5.6-.2.2-.2.1-.2.1-.6.4v.6l-.3-.1h-.3l-.3.1-.6.3-1-.5h-.4l-1.6.9-.2.7v.2l-.4.3-1.4.1-1-.1-.3.2 1.5.4v.1l.2.4-.1.3-.2.6.2.5h.4l.8-.4.1.2-.4.5-.2.1-.2.1-.6-.1-.4-.5-.3-1.2-.4.2-.5-.1-.6.8-.1.5-.1.3-.5.2h-.1l.4.4.2.4-.9.3-.5.2-.3.3-.4.3-.1.5v.2l-.1.4.1.3.8-.3.1.2-1 .4-.2.1h-.6l-.3-.9-.1-.1-.2-.2-.1-.1.1-.1.2-.2.4-.2.2-.1.1-.5-.1-.3-.1-.4-.1-.2-.4-.4-.9-.1v-.5l.6-.8.3-.2.2-.1.2-.1.8-.5.9-.6h.3l.7-.1.6-.4h.2l.5-.1.2-.1.3-.2-1.3-.5h-.1l-.2-.3.1-.2.3-.6-.3-.6h-1.3l-.1-.1-.8-.3h-.4l-1.1.9-.1.1-.5.6-.4-.1-.1-.2-.1-.4-1.6.7-.5.1-.4-.3-1.2.5-.6.1-.4-.1-1 .1-.6.2h-.5l-.5.4h-.5l-.5.2v.1l-.4.8-.4.1h-.1l-.2.4-.1.1h-.1l-.8.4-.3.1-.2.3v.3l.9-.3.7-.1.2.1.2.2-.1.4-.3-.2-.1-.1h-.5l-.8.4-.3.6-.3.2-.1-.3v-.1l.2-.8-.1-.3-.4.1-.4.1-.4.1-1-1h-.5l-1.1.8-.2.8-.3-.2-.4-.2v-.2l-.1-.4h-.2l-.5.7-.4.3-.1.1h-.6l-.2.1-.3.1-.8.1-.1-.3-.1-.2h-.4l-.3-.2-.2.2-.1.6-.4.4-1.8.8-.7.6-1.3.1-1.7.8h-.1l-1.1-.1-.8.5-.1.1h-.1l-1-.1-.7.3-1.6-.3-1.1.5h-.6l-.7.3-.5.3-.7.1-.6.1-.3-.2-.6-.4-.8.3-.2.2v.1l-.1.7-.4-.8-.1-.2-.9-.8-.5-.5-.2.1-.4.1-.4.3-.9.7-.8.2-.7-.1-.6.8-.2-.4.1-.1.1-.4-.1-.2-.6-.3-.2-.1h-.3l-2.3.2-.6-.1-1.1.4-.5-.1-.5.6-.3.7-.2-.2.3-1v-.3l-.4.1-.5.1-.9-.2-.5.1-.4.3-.3 1.1-.2-.5-.3-.7-.8-.8-.6-.2h-.7l-.7.4-.5.1-.6.4-.5-.1-.5.5-.4-.8-.6-.2-2.1.3-2.2-.5-.6.1-.3-.2-.5-.4h-.7l-.6-.3-1.6.1-1.3-.1-1-.8-.9.3-.3-.1-.8-.7-.8-.3-1-.8-.4-.1-.7.4-1.3-.6-.7.1-.2-.5-.3-.1-.4.4h-.7l-.6.4-.5-.9.2-.7-.8-.1-.5.5-.7-.1-.8.4-.5-.4-.5-.6-.6.3-.6-.1-.8-.6-.6-.1-.6-.1-.8-.6-.4.5h-.4l-.8-.5h-3.3l-.4-.3-.3-.1h-.1l-.4.4-.4-.1-.5.1-.4-.3h-.6l-.4-.2-1.1-.1-.2-.4-.4-.3-.5.6-1.1-1h-.4l-.5-.5-1.4.3-.2-.2-.7-.1-.4-.7-1.3.4-.4.4-1.3-.1-.8.3-.9-.2-1.5.1-.4.3-.4-.1-.4-.3-.5-.4-.3-.8-.9-.5-.9-1h-.2l-.5.4-.3-.5-.3-1 .2-.7-1.7-.7-1-.9-1.5.3-1.9-.1h-.6l-.4-.1-.6.2-.6-.1-.6-.4-.5.6h-.2l-.2-.1-.6-.8-.7-.5-.7-1.1-.5.1-1 .5-.7.1-.6-.1-2.2.2-1.7.6-.3-.1-.2-.5-.8.1-.4-.4h-.3l-.3.3-.2.5-.9-.4-.8-.2h-1.1l-.7-.2-2.2.2-.6-.3-1-.4-.8.5-.6-.1-.2.3-1 .5-.2.6-1-.3-.2-.4-.2.1-.3.6-1.1-.4-.4.4-.6-.3-.4-.6-.1-1.4.4-.6-.3-.4-.9.9-.6-.4h-.5l-.5-.4h-.6l-.4-.2-.6-.9-.5.1-.5-.3.1-.5-.1-.3-.5-.6-.2-.8-.7-.7-.6-.1-.4-.3.4-.3.2-.5-.2-.3h-.4l-1-.8h-.5l-.2.5-.2-.1-.2-.9-.5-.3-.4.1h-.5l-.5-.4-.1-.5-.3-.5-.1-.2h-.6l-.7.2-.2 1.9-.2.2-.8.3-.3.4h-.4l-.4.4-.5-.1-.4-.3h-.2l-.5.5-.7.1-.2.4.2.5-.4 1-.6.4h-1.3l-.3.4.1.1-.2.5-1.4 1-.8.1-.3.3h-.9l-.4.3h-.4l-.5-.7-.1-.1h-.2V85l-.2-.7h-.2l-.5.6-.7-.3-.1.3-.4.7-.5.3-1.6 1-.4.4-.4 2.1-.8.8.5 1 .3.2.2.5-.3 1.4-.4 1-.2.2-1.2-.1-.2 1.2-.2-.1-.2-.7.2-.6.5-.3h1.2l.2-.2.4-1.7-.2-.7-1.1-1.6.4-.3.8-.2.1-1.4.4-.9-1.2.2-.5-.1-.6.5h-1.3l-.6-.2-.7-.6h-.4l-.4.2-.6-.1-1.4-.7h-.5l-.6.3-.3-.1-.1-.4.1-.5-.3-.4-.8.5-.3-.1-.5-.9-.5.5h-.4l-.7-1.3-.3-.2-.2.1-.5 1.2-1.4.7-1.3.1-1 .6-3.6 1h-.5l-.5.4-.8.2h-.6l-.7-.5-.4.2-.3-.1-.7-.5-1 .5-1-.1-.7.4-.6-.2-.9-.8-.5-.2-.6.1-.7-.8-.4.3-.3 1 .2.7h-.3l-.5-.2-.9.5-.7-.2-.8.2-.9-.4-.7.2-.2-.1-.5-.5-.8.3-.5-.1-.3-.3-2-.1-1.2.1-.3-.2-.1-.7-.3-.2-.4.3-.3-.1-.6-.8-.4-.1-.9.5-.2.3-.7-.3-1 .2-1.3.6-.5.2-1-.3-.2-.3-.8.2h-.5l-.3.4-.3 1-.2-.1-.2-.9-.5-.6-.5.2-.7-.3-.6.3-.3-.1-.3-.4h-.6l-.5.3-.1.4-.3.3-1.5-.1-.5.2-1.6-1.1h-.7l-.6.3-.6-.6-.6.1h-.1l-.4-.1-.4.8-.3.1-1.4-1.1-.9.3h-.5l-.3-.3-1-.1-.4.2-.5-.1-.8.3-.4-.1-.7.8-.8.1-.4.4h-.5l-.3-.4-1.1.6-.6-.2-.2.2-.6-.1-.7-.3-.2.4.1.5-.3.8.2.5 1.2.7-.4.5-1.2.2-.3.4-1 3.7-.1.4-.2.2.1-1.4.5-3.1.6-.9-.2-1.3.1-.7-.5-.8-.3.2-.8-.5-.3.1-.5.7-1.1-.3-.5.2-1-.8-.7-.1-.7.5-.8.1-1-.1-1.5.2-1-.5-.5-.6-1.5.6h-.9l-2.5-.5-.2.1-.4.5.1.6-.1.2-.5.2-.1.1-.1.1-.5.5-.3.1-.3-.3.4-.8.1-.3-.5-.5 1.8-1.4V85l-.4-.4-.8-.1-.5-.5-.6-.1-1.3-.9-.2-.3-.7-.8-.7-1.4-.7-.9-.8-.8-2-3.9-.5-.4-1-.3-.8-.5-1.1-.2-1 .5-2-.5-.1-.6h-.3l-.5.7-.3-.4h-.7l-.7-.7-.7-.4v-.3l.8-1.2-.2-.2-1 .2-1.3-.6-.2.7-.4-.4-.4-.1-.3.4-.5-1.4-.4-.5-.5.6-.2.2-.7-.3-.7.2-.3.4.2.9-.7 1.2-.5-.2-.4.3-.9-.2-.2.2.5 1.6-.1.4-.4.4-.6.2-.3.4-.1 1.6v.5l-.1.1-.3.5-.4.1-.1-.2.2-.5.3-.7-.5-1.4-.1-.8.5-1.1-.1-.3-.5-.2-.1-.2.4-.7-.1-.4-.8-.1-.6-.2-.1-.1-.1-.2.1-1.7-.3-.9-.4-.4-.5-.1-.6.2-.4.5-.9-.2-.6.1-.4 1.1-.4.3-.5.1-.6-.3-.1.1.1.4.1.4v.2l-.1.5.4 1h-.3l-.3-.2-.5.1-.1-.2.4-.8-.1-.7-.1-.5.1-.3.1-.4.8-.3.4-.6.1-.6.3-.6.7-.8v-.6l.7-.2.1-.2-.1-.3-.2-.2-1.4-.8h-.3l-.6 1.3-2 1.5-.1.6-.2.4-.2.4-.3.1-.8-.3-1.3.7-.5.5-.9.2-1.1.5h-.3l-.2-.2-.2.1-.8 1.1-.1-.3-.6.4-.2.5.1.5-.6.1-.3.2-.2.8.2.5h.6l.1.2.1.1.1.1h-.1l-.2.1-.7.2-.4.5h-.5v-.8l-.6.1-.2-.1-.3-.6-.3-.2-.3.3-.6-.2-.1.3.6 1.2v.4l.3.3.1.3-.5.5-1.7.9-1.4-.5-.3-.4 1.3-.4.8.2.4-.6-.4-.5-.9-.2-.2-.3.8.1.2-.6v-.7l.5-.9-.3-1 .8.8.4.1.3-.2.4-.6-.7-1-.5-.3.4-1.2-.1-.8.2-1.5-.1-.6-.4-.4-1.1.6-.9.2-.9-.2-.7.7-.9 1.7-.6.3h-.5l-.8-.4h-.5l-.1.9-.2.4-.8.6-1.6.8-.8.7-.6.5-.3.1-.7-.1V72h-1.1l-.4-.3-.8.3-1.1.2-.4.5-.3.9-.1 1.4h-.3v1.9l.2.4.5.4.9.3-.3.3-.6.1-.1.2-.4.1-.3-.2-.3-.3-.3-.3-.2-.6-.4-.5-1 1.7-.5-.1-.4.8h-.5l-.3.7-.8.1-1.5 1.5-1.1.5h-.7l-.4-.5-.4.2-.3.6-.3.7-.2.4-.7.2-.2.4-.4.2-.6.6-.1.7-1.2.8-.8.2-.7.9-.8.3-.7.7h-.5l-.1-.3-.7-.2-.2.2-.4.4h-.5l-.5-1-.6-.4h-.5l-.3.2-.2.7.2.4.6.3.2.7.3.2h.5l.3.7v.4l-.6.7h-.5l-.3.3-.6.1-.4 1.2v.5l.1.3.6.2.2.4v.5l-.2.8-1.3 1.4-.5 1.4h.3l.4.3 1.3-1.1.3-.1.9.3.8.7.4-.1.5-.5.9-.5.7.1.2-.2.1-.5.3-1.1.4-.6.5-.2.2.4-.1.6.5.3.1.8h.3l.5-.6.2-.1.2.1.4-.6h.6l.4.4h.5l.3-.4.4-.1.3-.6.2-.3h.4l.5-.5v-.1l.4-1 .3.2-.1.8-.1.6-.4.5-.2.3-.3.8-.6.6-1.5 1.1-.4.2-.8-.1-.6.4h-.6l-.2-.3-.7-.1-.5-.5-.3.2-.4.2-.6.7h-.4v-.6l-1.6.8-1.1.2-.2.3.2.5-.6.1v.2l.2.1 1.1.5.6-.1.5.2 1.7 1.4.4.1.4-.1.6.3.4-.1-.2-.4.5-.5.6-.1.8.4.4.7.2.1.3-.2 1.4-.3.8.2.4.1.3.4-.4.3h-.5l-.6.1-1.2.5-.4.3-.2.9-.3.2-.2 1.4.5.8-.4.4.5.5.1.5-.5.6.1.3.7.7.4.4-.1.3-.3-.2-.2.1.2.5.2.7-.1 1-.2 1.7.1.5v.1l.1.4-.1.5-.1.3-.1-.1v-.1l-.2-.2-.2-.8.1-.2.3-1.7v-.2l.3-.7-.1-.3-.4-.6-.4-.2-.2-.1-.6-1-.7-.1-1-.9.1-.8-.1-.6-.7-.8v-.5l-.3-.4-1.5-.4-.5.3-.6-.1-.2-.9-.6-1.1-.6.2h-1.4l-.8.5h-.8l.3.6-.1.2-.6-.1v.5l-.3.4.3.2.8-.1.3.4v.6l-.2.1v.6l-.4.4v1.4h-.1l-.3.1-.4.3-.3.2-.6-.1-.6.4v.2l-.1.2.1.8.1.3-.3-.3-.5-.5v-1.1l-.1-1v-.1l-.3-.3-.4-.4-.2-.2-.1-.3.3-.8.3-.1v-.4l-.2-.8-.1-.4-.4.3-.5.1-.1.5-.2.7-.4.1-.2-.2-.3-.2-.5-.1-.8-.4h-.3l-.3.4-.2.3-.9.2.1 1.1-.2.2-.7.2-.6.5-.5-.1-.3.1-.2-.7h-.5l-.3.6.2.8-1.1 1.8-.6.1-1.3 1-.6.1-.8.4-.4.2-.2-.2h-.6l-.2-.3h-.3l-.5-.2-.4.1-.4-.2-.1-.2-.6.2-.6-.3-.4.7-1.4.4-.7.5-1.1.1-1.7.5-.7.5-1.3.2-.9.6-.1.1-1-.2-.4-.4h-.7l-.5.3h-.5l-.4-.7-2.3-.2-1.2-.8-1-1.4.1-.5-.5-.2-.4.3-.7-.4-.3-.2-.1-1-.2-.2-.2-.2H86l-.6.9.1.6-.3.6.5.6-.5.4-1.3-.5-.3.1-.2.5h-.3l-.4-.6h-1l-1.1-.3H80l.3 1.2-.1.6.1.5-.3.5-.3.2-.7-.1-.3 1.1-1.8-.9h-.7l-.5.6-.7.1-.3.4-.8.4-.1.4.3.7.3.2 1.1.2.6-.2.4.4.2.7-.1.6.5 1 .6.4.2 1.2.3-.1 1-1.2.1.2-.3.8-.4.4-1 .6h-.4l-.1-.2v-.6l-.4-.3-.7.1-.5.5H75l-.7-.5-.6.9-.2.3H73l-.2-.2.1-.4-.4-.9h-.2l-.3.3-.1.8-.4.3-.4.6h-.6l-.3.2-.2 1.2-.8 1-1.2.5-1.2.1-.2.3-.4.1v-.6l-.2-.2-.4.1-.2-.2-.2-.2-.5.5-.4.1-.6-.6-.6-.2-.4-.5-.5.1-.4.8-.6-.4-.5.1-.3.6-.4.2-.9-.1-.7.8-.3 1.7-.3.4-.9.1-.2.6-.5-.2-.2-.9-.2.1-.1 1.2.4.6.1.5 1.1 1.7.4-.3.5.3.3-.7.1-.8 1-1 .3 1.2.3.3 1.3-.1.7-.4h.3l-.3.4-.8.4-.9.1-.9 1.1-.3 1-.8.2-.3.2-.2.8-.3.2-.4-.7-.7-.6-.6.1-.2-.1-.1-.6-.3-.4-.5 1.4.4.9-.1.3h-.8l-.5.3-.3-.5-.7.1-.2.2.2 1.8-.1.4-.3 1.8-.1.1-.4-.3-.4.6-1 .1-.2-.2-.2-.6-.5-.3-.3.3.2 1.4.2.2.6.2.2 1.2.3.6v.8l.3.5.7-.3.4.2.1.4-.4.6.1 1.5-.1.8-.8 1.2-.6.5-.3 1.4-.2.3-.5.3v.6l-.4.5.1.3.5.4.8.3.2.5-.1.4-.2 1.3.7 1.5.4.1.7-1.5.2-2.2.6-.6h1l.4-.2.1-1 .2-.3h.7l.2.8.4.2.2.3.1.2-.1.6.3.2.5-.1.4.1.9-.4-.4-1.4.1-.6-.2-.7.2-.4.8.7.7 2.1.9 1.4 1.7.2.5.3-.3.8-.5.2-.3.4.3.4-.5.8-.2 1.4.2.8 1.1 1.6.2.1.9-.4.5.5.5.9.1 1.1-.2.8-.4.7-.2.1-1.4.4-.4-.3-.8.5v.3l1.8 2.2.1 1 .8 1-.1.4.2.4.6-.2.4.2.8 1.4.9-.1.2-.7.2-.8.2-.3.8-.1.3-.2.3-.9-.1-.3-.5-.6.1-.6.3-.3.4-.2h1l.8-.7.9-.2.3.1-.1 1 .2.4 1.5.7.4-.1.3-.3.2-.3.3-.5.6.1.5.9.5-.1 1.2-1.2.4-1.1.3-.2.3.3H80l1.3-2.5.6.6.4-.1.5-.5v.3l-.4.7-.7.2-.3.4-.2 1.3.1.3.6.4v.5h-.5l-.8-.5-.5.1-.7.5-.9.3-1 2.2-.5.6-.1.3-.7.5-.7.5-.4.1-.1-.4-1 .6-.5 1.1-.4.2-.4.6-.2.4-.1.1-.6.4-1.2 1.6-.1.3.2.2.1.6-.1 1.1-.1.2h-.5l-.2.3-.2 1.5.3 1.4-.4 1.4-.9.8-.6 2.2-.2.3-.7.4-.1 1.4-.6.7.7.7 1-.7.7-.1.4.3.4.3 1 2.3-.2.6-.5.4-.3 1.4.2.3h1l.6.4 1.3-1 .7-.2 1.2-1.3.2-.5-.6-1.5.1-.5.2-.2.2-.3h.8l.3-.2h.5l.5-.9.3-.3.5-.2.7.1.5-.4h.6l-.1-.4-.6-.5-.2-.4.4-1.5.4-.5.7-.3.8-1 .4-.1.4-.5.5-.3 1.1.6.4.5v.4l-.9.2-.3.9v.6l.4-.1.3.2.4-.3h.3l1 .8.2-.4-.4-.6.4-1.1.3-.4h.5l.3-.4v-.4l-.4-.4-.7-.3-.1-.2.9-2.4.4.4.3-.9.5.8.7.2.3.5.2 1.3.8.6.5-.1.4-.3 1-.2.9-.9.5-.2.4.4.6-.1.5.2-.1.1-.5.5-1.5 2.2-.1.7.5 1.2-.2.5h-1l-.3.8-.3.4-.5.1-.2.6-.4.1-.6.6-.6.1-.8.1-.2.4.1.6.5.2.3.4-.3.5-.4-.5H87l-.1.5.6 1.7.1.7-.2.9.1.5.9-.4-.2 1.7.3.8.2.1.4-.1.2-.1-.1.2-.4.5-.5.1-.6-.2-.2.1-.3 1.1.2.5-.4.6.1.2.8.1v1.2l-.3.2-.5-.3-.3.3h-.3v-.4l-.4-.2-.2.4h-.6l-.9.7-.2-.1v-.9l.2-.6.5-.1.3-.3-.5-1 .2-1-.2-.6-.8-.7-.5.5-.8.1h-.2v.4l.3.3-1 .9-.5.2-1.2-.1-1.1.2-.1.3.2.6-.6.6 1.2 1 .7-.7.3-.1 1.9.6.6.5.3.5.2.4-.3.6.2.5-.3.5.1.7h.9l.4.2.2.4.1.2v.6l.4.5.5.1.9 1.2.4-.3h.4l.5-.6-.1-.4 1-.2.6-.3.4.1.6.5.1.1.8.3.4.5.5-.5.3-.1.7-1 .6-.1 1.1-1.3.6-.2.4-.5.9-.3.5-.8 1.2-.4.5 1.1.4.4h.4l.6.4-.5.8-1 .5-.5.5-.4.4-.7.2-.7-.1-.8.9-.4.7-.5.5-.4.2-.2.5-.3.2-.2 1.1-.4.6-.2.9-.9.9-1.1.5-.8.1-.5-.2-.1-.6-.2-.1-.1-.1-.5-.1-.4.2-1.4-.3-.4.3.1.4.5.3.1.5-.1.7.6 1v.6l-.3.4.1.7-.3.6.1.4.7.6-.4.2-.7-.3-.5-1.3-.3-.2-.5-.3-.3-.9-.5-.4-.2.4.1.6-.3 2.9-.8 1.6.1.4h.3l.3.3.5-.9.4-.4.7.1.9.8.4.2h.4l.6-.6h.5l1.1.9h.3l.4-.5.6-1.2.5.4h.8l.4-.2.5-.8 1-.4.6-1 .4-.2h.3l.8.6h.5l.4-.3.5.1.3.1h.4l1.2-1.3 1.2-.2.1-.1.2-.2.2-.4-.5-1 .3-1 .2-.1.5-.6.8-.3-.5-.7v-.3l.8-1.5.3-.1.6.6.4-.1.2.4-.3 1.7.2.7-.5 1.4.4 1.1-.2.8.1.2.3-.1-.1.3-.4.2-.6-.3-.6.1-.8-.3-.6.2-.3.2-.8.6-.7.7-.3.6-1 .9-.6.1-.6-.1-.6 1.5v.1l-.5.5-.4.1h-.1l-.6-.2-.3.2v.2l-.2.8v.2l-.7.4-.5.1-.4-.2-1.2.2-.9 2.5-.2.2h-.6l-.3.5-.5.4-.6.2-.3 1.1-.1.9-.7 1.2-.5.2-1.2-.2-1.1.6.4.4 1.2.4.3.7.4-.1.2.6-.3.8.1.4.5.5-.1.2-.5.2-.1-.3-.6.2-1-.1-.2-1.1-.2-.2-1.3 1-1 .5-1.1.1-.6.4-.1.4.3 2.5-.1 1 .2.9.1.2.1 1.8.3.8-.2.9.1 1.1.4 1-.5 4.4.2 1.2-.1 1.6-.1 2.2.3.9.4.4.1.9-.3.8.1 1.5.7.8 1.9-2.3.5-1.1.7-.7.5-.5.7.2.6-.5h.3l.3.3.2.5.5-.3 1.6-.7 1-.6.6-.7.5-1 .8-2.5 1.1-1 1.9-.7 2.1-1.1 1.4-1.5.3-.5.6-2.3.5-.6.9-1.1 1-.4 1.3-.4.7.1 2.5.2 2.2-.5.6-.6.5-1.5.4-.2.7-.2 1.4.2h1l1.5-.4 2.1.1.5.2h.9l1.4-.5.9.2.6-.1 1.1-.8.5-.1 2 .1.5-.1.7-.4.7-.8 1.5-.6.9-.5 1.1-.7 1-.3.8-.8.1-.1h1.3l.3-.1.7-.2.2-.1.4-.4.2-.2.1-.1.3-.3.6.1.3.2v.8l.1 1.3.3 2.1.4 1.8.2 1.5v.4h.7l1.9-1 1.6-.3 1 .2 1.3.7 1.1 1.5.1 1 .2 1.3-.3 1.8-1.3.6-1.1.6-1.4 1.3-2.1 1.1-.3.4-.3.3-.5.7-.3.7v.1l-.4.6-.5.3-1.6 2.7-.6.6.2.5-.1.1-.2.4-.1.2.1.3.2.6.4.8.6 1 1.8.1.3.1v.1l.1.1.1.2.2.3.6 2.2.3 2.5.1 1.1.1.3 1.6.6h.3l.9.1.4.2.4.2.6.3h1.3l1.1-.2h.1v-.5l.4-.6 1-.3.4-.1 1.3-.9.3-.3.9.1.6-.4.9-1.7.6-.5.8-1.5.4-.3h1.6l1.8-.5.5-.3.7-.8.3-.7.1-1.4-.1-1.5.2-.4.7-.2.3-.1.8.3.4-.1.3.7v.9l-.8 4.7.3.7.6.5 1.5-.4h.6l.9-.6.1-.5.2-1 .9-.1 1.9-.2 1.3-.4 1.7-1.1.8-.1h.3l.8.2h1.3l1-.6.7-.4.6-.1.4.2 1.7 1.3 1.1.9.8.5h.8l1.6-.5 1.6.4.8-.3h.5l-1.2 1.1-1 1.2-.5 1.6v.3l.2.1 1.2.6 1.1.3.9.1 1.3-.3.8-.6 1.5-.5 1-.5.3-.2.4-.6-.4-1 1-.7 1.7 1.1.9-.1h.7l.2.6.4.6.3.7.9.9.2.1.4.4-.2.7v1.2l.5-.1 1-.2.7-.5.2-.6.7-1.3 1.4-1h.8l1.5.5 1.2.1 1.6-.5 1.1-.3 1.1-.1 1.2-1 1.2-.5 2.2-.7 1.1-.8.3-.2.8-.5 1.3-2.7v-.1l.1-.1v-.5l-.3-.9-.3-.6-.2-1.1v-.1l.1-.5.1-.4v-.1l-.4-.7.1-.2.1-.5.1-.2v-.1l.5-1 .1-.1.3-.3.3-.2.5-.2 1.3-.3 1.8.6.7-.2 1.4.5 1.5 1 1.1 1.9.4.3.7.1.7-.2 1.5-.1.8.3 1-.1 1-.9.9-1.1.8-.3h.6l.9 1.1.2.1.4 1 .1.1.2.2.8.4.8.2h1.7l.9.3.8-.2 1.4-.4.2-.2.6.2h.1l1.5-.1 1-.4.4-.4.2-1.6.1-1.4.3-.6 1.2-.1h.7l.7.3 1.1 1.3.8 2.4.9.9h.9l1.1.2 1.4.2 1.2.1 1.2-.2 1.2-.3 2.3-.3h.2l1.9-.4.6-.7.2-1.5.7.1.4.3.4.8.8 1.3.8 1.3-.2.8-.6 1.1v.9l-.3.9-.5.6.1.7 2.1.5 1.1.5.4.5-.2.4-.2.4.1.2-.6 2 .1.6-.2 1.5-.5.6-.2 1.2-.4.6-.2 1-.3 1.8-.5.9-1 .9v.5l.6.5.1.1.2.6.4.4.5 2.1v.4l-.4.9-.4.9.8.1 1.5 1.1.7.3 1.2 1.1.5.8 3.1-1 .4-.2 1.2-1.9h.4l1 .5.6.1.3.1h1.4l1.1.4.7.1 1.6-.3.5.1.5.2.6.6.9.5.6.2 1.7.5h.1l.9.5.4.5 1.4 1.2 1.3 1.9 1 1.4.4.4 1.6.6 1.1 1.4.1.6-1.1.5-.5.4-.4.5-.2.6-.1.2-.3.1-.6 1.4-.6.9-1.9 1.6-.1 1.2-.2.3-1 .8-.4.8-.7.7-.1.5-1.3 2.8-.2.6.1.8v.3l-.3 1-.5.7-.5.4-.3.6-.1.5-.2.8-.4.5v.1l-.2.1h-.1l-.1.1-.1.1h-.1l-.9.1h-.3l-.7-.9-.7-.2-.8.1-.5.6-.2 1 .7 1.3.1.5-.2.3-1 .9-1.2.7-.5.9-.4.4v.1l-.5 1.5-1 .9-1.3.6-.2.2-1 .7-2.7 2.8-1.6.6h-.2l-.5.1-.6.2-1.2 1.1-.3.4.2 1.7h-1.5l-.6-.2-.8-.2-.4-.2-.5-.2h-.4l-.9.2-.9.4-1.9 1.9-1 1.3-.5.9-.4.6-.7 1.7-1.4 1.8-1.7 1.6-.7.5-1.3.9-.3.5.1.5.4.3.6.8.1.7-1.3 1.8-.7 1.7-.3.7-1.2 1.2-.2.3-.5.8-.4.2-.9.5-1.8.4-2.4.2-1.7-.5-.4-.1h-.1l-1.1-.1-.4.1-.8.4.1.4.1.3v.6l.1.3.9.8.9 1.4 1.3 1.6.8 1.1.5.9.9.6.4.4 1 2.9.1 2.6.5.7.6.5.2.4 1.3.4.2.1.3.4.4 2.2.1.8v.1l-.4.3-1.1.2-.1.2.2.7-.3 1.1.4 1.7-.5 2.2-.1 1.9-.3 1.6.2.7.1.2.4.8v.5l.4.3.4 1.3.1.8.4 2.9.2 1.4.5 1.9v.9l-.3 1-.6 1.6-.8 1.4-.6 1-.1.2-1.2 2.5.9.6.6-.1 1 .8.8 1.1.2.6.4.8-.1 1-.4 1.2-.4.2-.5.7-.8 2-1.1 1.2-.8 1.8v.8l.6 1.4.3.8-.1.8.2.4.8 1.5.7 1.2.3.5.4.1.7.7.8.2.5.3v.5l-.6.6-.1.3-.3 2.6-.4.3-.7.2-1.2.6-.7.6-.2.2-1.1.8-1 .9-.2.9.2 1.3-.1.9v.1l-1.4.7-1.7.3-3.9.2-.3.1-.4 1-.6.6-1.6.1-1.2.6-.7 1-.4 1.1-.5 1.3-.2 1.2.2.7.2 1.7.4.6.1.5-.2.9.2.9.7 1.3.8.9.6-.4 1.4.3.5.2h.1l.8.2.3-.1.3.1.2.7.5.3.2.1.4 1.1.4.6.2 1 .2.4.2.2.5.4.1.3v.1l.6.2h.3l-.1.3-.1.3v.5l.2.2.1.1.4.4.5 1.1-.1.3v.1l.1.1.1.2v.1l.1.4v.2l.2.3.1.1.6.7-.4.2-.2.5-.4.7-.1.7-.8 2.2-.1.2-.3 1.2.4 1.5-.2 1-.3.4-.8.9-.1.8.4 2.1-.2 2.7-1.2 1.7-.9.6-.1 1.2-.9.5-.5.5-.2.1-.5.2-1.1.1-.8.8-.7.7-.2.8.7 2v.9l-.1.6-1 2.2-.1.5.1 1-.1.3v.1l-.3.5-.2.5-.2 2.3v.1l-.3 1.3-.5.8-.3.2-2.3.8-1.2.6h-1.3l-1.3-.5h-.1l-.4-.1-.6-.1h-.4l-2.2.5-.9.2h-.3l-.7-.1-.4-.1-.6-.2-.4-.1h-.6l-5.4-.4h-.2l-1 .4-3.9 1.5-1.1-.1-3.6-.4-1.2-.1-.4.1h-.1l-.9-.1-1.5-.5h-.1l-3.5-.8-1.8.2-1.1-.1-1.1.3-.5.2-.3.3-.1.4 1.4 3.8.2.7 1 1.7.9.9.9.4.8.4.6.5.2.3.5.8.7 1.8.4.4.6.5.5.1.6.1h.2l.5-.1.6.9.7 3 .4.8.5.5 1 .5.9-.1.8.7.5.2 1.4.5 1.1.7.2.2.3.3.1.4-.5 1.7v2.4l-.2.6-.6.7-1.5 1.2-.2.5.9 2.7.3 1 .1.3.2.2 1.5 2.4 2.1 1.8.9.8.4.4 1.4 1.4.2.5-.3.9-.5 1.4-.1 1.6.3 2.7.7 1.3.4.5.5.6.9.5.9.3 1.8.3 2.3.4.9.8.1 1.2-.1 2.2-.3 1.5v.5l.4.7.5.5.5.4 1 .2 1.4-.1 3.7-1.7.8-.1.5.1 2 1.5.9.7 1.9 1.8 1.1 1.6.1.5-.4 1.5.1.4.8.9.2.4v.6l-1.3 2.4-1.6 3-.7.9-1.4 2.1v.2l-.5 1.7-.3.4-1.6 1-.2.5.2.7.2.4.8 1.5.1.7-.2.8-.3.5-1.3.5-.3.1-.5.3-.8 1.2-.2.2-.7 2-.4.5-.5.1h-1.8l-.6.2-1.6 1.5-.5 1-.4.8-.4.4-.2.1-1.6.7-.8 1.5-.8.8-2.2 1.2-.2.1-.9.5-.5.4-.3.7-.8 5.4-.1 3v.3l.3.3.4.1 1.2.4.1.4-1.2 1.9-.4 1.6-1 1.7-.3.7-.5 1.2-.2.4-.8.8-.2.5-.3 1.7-.4.8-.4.8-.2 1-.3 1.5.1.4.4.2.7-.4.4-.2.1.5-.6.8-.6.8-.3 1.5-1.1.9-.2.4.1.3h1.4l2.2 1.4 1.2 2.6 1.6 2.1 1.5 2 1.6 1.8.5.6 2 3.4.7.9 1.2 1.2.3.3.5.6.3.6.7 3.3.1.2v.2l1.5 2.2 1.1 2.3.1.2.7.6.6.6h.9l.1-.1.3-.6.2-.1.3.2.6.4 1.4-.5.7-.1.2-.1.4-.2.4-.2h.1l.2-.3.3-.4v-1.1l.4-.1.9.1 1.1-.4h.8l1.3-.9.5-.2.6.1.1.2.1.2.1.3v.2l-.6 3.3-.1.3-.6 3.2-.4 1.4-.3.9-2.7 4.5-.1.4.1.6.1.5v.6l-.1.5-.5 1 .7 1.4-.2.5-2.4.8-1.5.1-1.3-.5-1.8-1.5-.7-.2h-1.1l-.4.3-1 1.5v.2l.4.8v.6l-.8.7-3.5.3h-.4l-1-.9h-.4l-.5.2-.6.8-.2.3-2.1.6-1.2.5-.5.9v.8l.3 1.2.3.9-.8 1.6-.5 2.1-.5 1.1-.8 1.7.4.5.1.4-1.1 2.1-.6.7-.3 1.2-2.1 2.8-1.7 1.3-.3.2-1.3 1.3-1.4 1.5-1.2.9-.8.1-.6.7-.2 1.1-.7 1-.4 1.9-.4 1.2-.5 1.7-.1 2-.4 2-.3.7-1 1.2-.3 1.2-.6.5-.5 1.2h-.4l-.2-.2-.2.6v.6l-.3 1.2.2.4-.4.3-.7.9-.2.6.7.2.1.2-.2.3-1.3.1h-.2v.2l.1.5v.1l.5 2.3.1.4.4.1 1.4.5.2.3v.1l-.1.8.2.5 1.8 1.3.3.8-.3 1.5.7 1.5.3 2.2.8 1.5-.2.4-.7.1-.2.2.3.8 1 .7.5.6.3 1.1.2 1.4-.2 1.4-.3 1.4.3 2.1v2.4l.2.4 1.1 2.3v.6l-.7 1.8.1.5 1 1.6.1.5.1.4v.3l.1.5.4 2.1.6 1.2.4.4.3.3h.1l.4.2h1.6l1.8-.8.4-.4-.1-1.2.1-1.1.3-.5h.4l.2.2.1.5-.2.8v.4l.6.2 1.6-.5 1.4-.4 1.3-.2 3-.1 2.4-.3 2.5.2h7.8l.7-.1-.2-.4h-3.6l-2.1-.2h-.1l-1.1.2-.7-.1-1.2-.8-.5-.7-.1-.5.4-.7.1-.8h.4l-.1 1.5.2.7.5.3h6.8l1.9.6 7.1 3.4.1.1h.4v-.2l-.5-.4-.6-1.2-.7-1-.4-.4-.8-.1-1.3-1 .1-.1h.4l1.4.8.1-.4-.2-.6-1-1-.1-.2v-.3l.2-.2.3.2v.4l1 .8 1.1 1.8.7 1.5 1.9 2.3.4.3 1.4.5-.5-1.2-1-1-.4-.5-.4-1.5-.4-.6-1-.4-1.2-1.2-.3-.6.3-.4.4.4.5 1 .3.3.1-.3-.3-1.1.2-1-.1-.8-.4-.7-.2-.5-.4-.4-.1-.3.4-.1.1-.2-.2-.6v-1.6l-.6-1.6v-.7l.4-.8.2.1.1.6-.2.7.6 2.8.2-.1.4-.8.1-.2.2-.1.2.1.2.6-.2.7-.6.9v.8l.4 1.9.2 1.6.1.2.5 1.4.4-.1.5-.5.5-.5 1.1-1.6 2.4-3.4.4-.6.4-1 .5-.6.6-.3 1-.9h.4l.4.3-.4.4-.6-.2-.7.4-.8 1.1-.3.4-.1.5v.1l-.1.3-.3.7-4.3 5.2-.2.3-.1.4.1.4 1.2 2 .5.5 1.6 1.7 1.6 1.1 4.3 2.4 1.3.4.5.2.8.4.6.4 5.5 3.3 3.4 2 2.1 1.3.6.4 3.8 2.6 2.2 1.8.1.1 2.4 1.9.2.2.8.8 3.5 3.5 2.1 2.6 1 1.6 1.1 2.6 1.1 2.7.5 1.6.1.7.1.4 1.3 2.3 1 .1.6.3h1l.3-.2.2-.9-.1-.7-.3-1.6.3-3.9.3-1.1.1-1.1h-.1c-.1-.3-.2-.7-.3-1-.2-.5-.5-.9-.7-1.4a10.09 10.09 0 0 1-.7-1.5 4.71 4.71 0 0 1-.4-1.7 8.22 8.22 0 0 1 .2-2.1 9.76 9.76 0 0 1 1.2-2.6 6.82 6.82 0 0 1-1.7-2.3 4.87 4.87 0 0 1-.6-2.2 7.41 7.41 0 0 1 .1-2.1 15.19 15.19 0 0 1 .6-2c.5-1.3 1.1-2.4 1.5-3.4a2.09 2.09 0 0 0 .2-1.3 1.28 1.28 0 0 0-.4-1 18 18 0 0 0 1-1.8 5.35 5.35 0 0 0 .4-1.6 3.79 3.79 0 0 0 0-1.5 7.72 7.72 0 0 0-.2-1.5 26.13 26.13 0 0 1-.6-3.2 11.48 11.48 0 0 1-.1-1.9 8.92 8.92 0 0 1 .3-2.2 3.92 3.92 0 0 0 .8-1.4 3.79 3.79 0 0 0 0-1.5 9.36 9.36 0 0 0-.4-1.6c-.2-.5-.4-1.1-.6-1.6a13.1 13.1 0 0 1-1.1-2.9 5.28 5.28 0 0 1-.1-1.2 1.52 1.52 0 0 1 .6-1 5.85 5.85 0 0 1 .4-1.9 4.11 4.11 0 0 1 .8-1.3 15.66 15.66 0 0 1 2.1-1.7 3 3 0 0 0 .8-.8 1.69 1.69 0 0 0 .3-1 3 3 0 0 0-.4-1.4 13 13 0 0 0-1.3-1.9c-1-2.3-2.3-4.3-3.3-6.3a16.92 16.92 0 0 1-1.3-3.1 12.86 12.86 0 0 1-.5-3.5 2 2 0 0 0 .2-1 1.37 1.37 0 0 0-.5-.8 8.79 8.79 0 0 0-1-.6 5 5 0 0 0-1.3-.4 14.07 14.07 0 0 0-2.8-.3 6.25 6.25 0 0 0-1.8.2.86.86 0 0 0-.6-.3 2 2 0 0 0-.7.1c-.5.1-1 .3-1.4.4h-.6a.78.78 0 0 1-.4-.4 2.15 2.15 0 0 1-.2-1 12.83 12.83 0 0 1 .1-1.8 4.79 4.79 0 0 1 1.1-1.5c.5-.5 1.1-1 1.6-1.6a8 8 0 0 0 1.3-1.9 5 5 0 0 0 .2-1.2 7.84 7.84 0 0 0-.2-1.4 2.17 2.17 0 0 0 1.2.2 13.12 13.12 0 0 0 1.5-.3c1.1-.4 2.3-1 3.6-1.6s2.8-1.3 4.2-1.8l2.2-.6a16.2 16.2 0 0 1 2.2-.1 4 4 0 0 1 1.5-.1 3.54 3.54 0 0 1 1.1.3 4.36 4.36 0 0 1 1.4 1.3c.2.2.3.4.5.5s.3.2.5.2a1.33 1.33 0 0 0 .7-.3 4.64 4.64 0 0 0 1-1 15.56 15.56 0 0 1-.1-2 5.67 5.67 0 0 1 .3-1.5 8.79 8.79 0 0 1 .6-1 4.05 4.05 0 0 1 .9-.5 3.4 3.4 0 0 1 1-.1 4.51 4.51 0 0 1 1.1.3c.4.2.7.4 1.1.6s.7.5.9.9a2.18 2.18 0 0 0 .9-.7 3 3 0 0 0 .4-1 2.44 2.44 0 0 0 0-1.2 6.11 6.11 0 0 0-.3-1.3c-.3-.9-.7-1.8-1.1-2.7s-1-1.7-1.4-2.4a15.06 15.06 0 0 0 1.8-1.8 3.78 3.78 0 0 0 .7-1.1.45.45 0 0 0-.2-.6 1.61 1.61 0 0 0-.7-.4 8.36 8.36 0 0 1-2-.8 1.78 1.78 0 0 1-.7-.8 9.05 9.05 0 0 1-1.2-2.2l.8-.9.6-.4.6-.6 1.3-.9.6-.6.8-.3.6-.5.7.1 2.4-.4.7-.5 1.5-.7.8-.1.8.1.8.4h.8l1.3-.9.7-.3 1-.1.6.2.3-.1.5-.1.6-.5.6-.6.5-.9v-1.5l.3-.7 1-1.2.6-.5.2-.8v-.8l-.2-.8-1.1-1.2.1-.8 1.1-2.3.6-.6.7-.4.8-.2.7-.3.6-.5.8-1.3.7-1.6.5-.6.7-.3.7.5.6-.5.5-.6.7.4h.7l.5-.6.7-.2 1.6.4.8-.2.6-.6.8-.1.5.6.6.4.6.6.4.7.5.6.9 1.3-.6.6-.7.2-.7.5-.8.2-1.3.8.3 1.5.2.7.2.8-.2.7 1.2 1 1.5.3.8-.5.5-.6 1.3-.8.7-1.4.7-.5.5-.6.5-.8.6-.6h.8l.7.3h.7l.7.3h.9l.1-.2c.1.2.1.5.2.7a18.35 18.35 0 0 0 2.3 2.9 9.39 9.39 0 0 1 1.4 1.8 19.08 19.08 0 0 0 1.5 2.1c.5.6 1.1 1.2 1.8 1.9.3.4.5.7.7 1a2.92 2.92 0 0 1 .2.9 10.21 10.21 0 0 0 .1 2.4 23.32 23.32 0 0 0 .5 2.7 5.78 5.78 0 0 0 .5 1.4 1.55 1.55 0 0 0 .8.8 5.64 5.64 0 0 1 1.2.4 7.46 7.46 0 0 1 1.2.7 4.3 4.3 0 0 1 .9 1 2.84 2.84 0 0 1 .4 1.3 7.22 7.22 0 0 0 .5 2.7c.2.8.5 1.6.7 2.5a8.11 8.11 0 0 0 .3 1.1 1.79 1.79 0 0 0 .5.7 1.61 1.61 0 0 0 1.1.5 4.48 4.48 0 0 0 1.1.1c.2 0 .3.1.5.2s.3.2.4.4a2.74 2.74 0 0 1 .2 1.3 7.84 7.84 0 0 1-.2 1.4 7.84 7.84 0 0 0-.2 1.4 2.54 2.54 0 0 0 .2 1.2 19.38 19.38 0 0 0 1.6 1.7l1 1c.2.3.4.5.4.7 0 1.9 0 2.3.1 2.4s.2.1.4.3a3 3 0 0 1 .9 1 3.49 3.49 0 0 1 .5 1.3 5.28 5.28 0 0 1-.1 1.3 1.93 1.93 0 0 1-.5.9.37.37 0 0 1-.3.1c-.1 0-.2-.1-.4-.2-.5-.5-.8-.7-1.1-.7a1.23 1.23 0 0 0-.8.4c-.3.2-.5.5-.9.8a4.58 4.58 0 0 1-1.4.7c-.3.1-.8 0-1.3.1a3.64 3.64 0 0 0-1.5.2l-.6.3a.92.92 0 0 0-.4.6 1.35 1.35 0 0 0 0 .9 3.82 3.82 0 0 0 .4 1.3 8.58 8.58 0 0 1 .3 1.7v1.8a4.64 4.64 0 0 0 .2 1.4c.1.2.2.3.4.3a1.15 1.15 0 0 0 .6 0 1.67 1.67 0 0 1 1.3.3 4.49 4.49 0 0 1 1.3 1.1 2.4 2.4 0 0 1 .6 1.5 1.7 1.7 0 0 1-.1.7c.2-.4.5-.9 1.2-2a18.91 18.91 0 0 1 2.2-2.9 15.68 15.68 0 0 0 2.5.4 2.28 2.28 0 0 0 1.1-.3 3.54 3.54 0 0 0 1.2-1c.6-.6 1.3-1.5 2-2.3a12 12 0 0 1 1.2-1.1 3.38 3.38 0 0 1 1.2-.6 2.53 2.53 0 0 1 1.5 0 2.7 2.7 0 0 1 .8.7 1.34 1.34 0 0 0 .7.6 1.23 1.23 0 0 0 1-.1 2.9 2.9 0 0 0 .8-1 8.8 8.8 0 0 0 .5-1.5 7.26 7.26 0 0 1 .5-1.2c.1-.1.2-.2.3-.2s.2.1.3.2a9.56 9.56 0 0 1 1.5 2.2 7.71 7.71 0 0 0 1.4 2.1 8.06 8.06 0 0 1 1.2 1.8 12.74 12.74 0 0 0 1.3 1.9 23.14 23.14 0 0 0 2.1 1.9c.4.3.7.5.8.4s.1-.4-.3-1.1c-.6-1.2-1.4-2.4-2.1-3.7a1.7 1.7 0 0 0-.6-.6 8.79 8.79 0 0 0-1-.6 7.26 7.26 0 0 1-.9-.5c-.2-.2-.4-.4-.4-.6a8.57 8.57 0 0 1 .5-2.7 13.39 13.39 0 0 1 .6-1.2 2.36 2.36 0 0 1 .9-.8 7.26 7.26 0 0 1 1.4-.6 1.38 1.38 0 0 1 .9 0c.5.2.9.7 1.6 1.5.3.3 1.1 1.2 1.9 2.2a9.38 9.38 0 0 1 1 1.4c.2.4.4.8.3 1a12.53 12.53 0 0 0-.3 2.7v1.4c0 .1 0 .2.1.2s.1.1.1.2a.19.19 0 0 0 .3 0 3.74 3.74 0 0 1 1.5-.5 1.22 1.22 0 0 1 .9.3 1.53 1.53 0 0 1 .4 1 10.9 10.9 0 0 1-.1 1.7 12.54 12.54 0 0 1-.9 2.5 6.47 6.47 0 0 0-.4 1.3 6.88 6.88 0 0 0-.2 1.3 2.46 2.46 0 0 0 .5 1.5 4.74 4.74 0 0 0 1 1 4.36 4.36 0 0 1 1 .8 1 1 0 0 1 .5.8v2.1a9.23 9.23 0 0 0 .5 2.5 3.09 3.09 0 0 0 .9 1.2 1.4 1.4 0 0 0 .9.3h1.1a3 3 0 0 1 1.4.4 3.27 3.27 0 0 1 1.2.9 1.13 1.13 0 0 1-.1.8c-.1.3-.3.6-.4.9a1.85 1.85 0 0 0 .2 1.4 6.54 6.54 0 0 1 .4 2.1 3.55 3.55 0 0 0 .2 1 1.34 1.34 0 0 0 .6.7 4.37 4.37 0 0 1 .8.7 10.47 10.47 0 0 1 .8 1.1c.3.4.6.7.8 1a3.28 3.28 0 0 0 .8.6 2.23 2.23 0 0 0 1.1-.1c.4-.2.9-.4 1.3-.6s.9-.4 1.3-.6a1.83 1.83 0 0 1 .9-.2 6.66 6.66 0 0 1 1.1.6c.3.1.7.3 1 .4a4.25 4.25 0 0 0 1.1.2 1.9 1.9 0 0 1 .9.3 7.46 7.46 0 0 1 1.2.7 1.89 1.89 0 0 1 .8 1 1.69 1.69 0 0 1 .2.5.75.75 0 0 1-.1.5c-.2.3-.7.7-1 1.2a2.51 2.51 0 0 0-.4.7 1.49 1.49 0 0 0 .2.9 22.63 22.63 0 0 1 1.3 2l.3.9a1.45 1.45 0 0 1-.7.2c-.8 0-1.7-.1-2.6-.1a14.12 14.12 0 0 0-2.2.1 9.25 9.25 0 0 0-.7 2 13.93 13.93 0 0 0-.5 2.3 1.28 1.28 0 0 0 .4 1c.3.3.4.5.6.6s.2.4 0 .6a5 5 0 0 1-1.2.9 22.63 22.63 0 0 0-2 1.3c-.6.5-1.3 1-1.9 1.5a.76.76 0 0 1-.4.2c-.1 0-.2-.1-.4-.2a3.51 3.51 0 0 1-.7-.9 14.32 14.32 0 0 1-.9-1.9 4.45 4.45 0 0 1-.6-1.2 2.77 2.77 0 0 1-.1-.9.73.73 0 0 0-.2-.6 2.23 2.23 0 0 0-1-.5 1.09 1.09 0 0 0-.5.1 2.19 2.19 0 0 1-.5.3 7.3 7.3 0 0 0-.9 1.3c-.5 1-1 2.2-1.2 2.6s-.5.7-.7.7a1.08 1.08 0 0 1-.7-.3 10.14 10.14 0 0 1-1-1.6 1.54 1.54 0 0 0-.7-.7 1.33 1.33 0 0 0-.7.3c-.4.4-.8 1.1-1.3 1.6a1.2 1.2 0 0 0-.4.8c0 .2.2.3.4.5a8 8 0 0 1 1.8 1.2 3 3 0 0 1 .5.7 1.85 1.85 0 0 1 .2.7 3.53 3.53 0 0 1-.3 1.4 3.81 3.81 0 0 1-.9 1.3 5.73 5.73 0 0 1-1.1 1.1 11.92 11.92 0 0 1-1.8 1.5 10.18 10.18 0 0 0-1.8 1.8 1.56 1.56 0 0 1-.8.6l-1 .3a4.4 4.4 0 0 1-1 .2c-.3.1-.6.2-.7.4-.6.6-1.1 1.2-1.6 1.6a4.65 4.65 0 0 1-2 .9 4.3 4.3 0 0 1-1.6 0 7.72 7.72 0 0 1-1.5-.2 6.55 6.55 0 0 0-1.4 0 2.79 2.79 0 0 0-1.3.7 7.07 7.07 0 0 0-1.2 1.8 5.73 5.73 0 0 0-.4 1.4l-.2.2a3.6 3.6 0 0 1-1.2.8 12.56 12.56 0 0 0-1.9 2.2 7.69 7.69 0 0 1-1.2 1.3c-.4.3-.7.5-.8.4a10 10 0 0 1-2.4-1.5 3.59 3.59 0 0 1-.7-1 5 5 0 0 1-.5-1.6l-.3-1.2a5.21 5.21 0 0 1-1.4-.2 2.62 2.62 0 0 1-.9-.5 4.37 4.37 0 0 1-.6-1c-.1-.4-.3-.9-.4-1.4s-.3-.9-.5-1-.4 0-.6.2a3.49 3.49 0 0 0-.6.9 5.64 5.64 0 0 0-.4 1.2 1.68 1.68 0 0 1-.6 1.1 2.18 2.18 0 0 1-.9.7 9.12 9.12 0 0 0-2.1 1.5c-.3.3-1.1 1.6-1.9 2.7-.4.5-.8 1-1.1 1.4-.2.2-.3.3-.5.3s-.3 0-.4-.1c-.5-.5-.9-.8-1.4-1.3a5.55 5.55 0 0 1-.6-.8 3.58 3.58 0 0 1-.4-1.1 2.63 2.63 0 0 1-.1-1.2.71.71 0 0 1 .3-.6 3.39 3.39 0 0 0 .6-.6 3.48 3.48 0 0 0 .7-1.1 4.06 4.06 0 0 1 .9-1c.2-.2.3-.4.4-.5a1.42 1.42 0 0 0 .2-.6 10.36 10.36 0 0 0-.3-2.8 1.61 1.61 0 0 0-.4-.7c-.2-.1-.4-.1-.8.1a4.12 4.12 0 0 1-.8.3h-.8a6.56 6.56 0 0 0-2 0 5.36 5.36 0 0 0-1.1.5 3.92 3.92 0 0 0-.8 1 1.3 1.3 0 0 0-.2 1 .94.94 0 0 0 .6.8 6.08 6.08 0 0 1 1.6.9 1.79 1.79 0 0 1 .5.7 2.4 2.4 0 0 1 0 1.2 6.78 6.78 0 0 1-.8 1.9 16.61 16.61 0 0 1-1.3 1.4c-.4.4-1.1.9-1.7 1.4a3 3 0 0 0-.8.8 4.05 4.05 0 0 0-.5.9 1.9 1.9 0 0 0 .1 1.3 3.92 3.92 0 0 0 .4.9c.1.2.1.4-.1.4a4.34 4.34 0 0 1-1.3-.2 6.12 6.12 0 0 1-1.2-.5 3.59 3.59 0 0 1-1-.7 3.92 3.92 0 0 1-.8-1 6.12 6.12 0 0 1-.5-1.2c0-.2-.1-.3-.3-.5a2.19 2.19 0 0 0-.5-.3 5.9 5.9 0 0 0-1.4-.2 4.44 4.44 0 0 1-1.3-.2 1.33 1.33 0 0 1-.5-.3.76.76 0 0 1-.2-.5 1.42 1.42 0 0 0-.2-.6 1.76 1.76 0 0 0-.4-.5 2.73 2.73 0 0 0-1.2-.6 5.28 5.28 0 0 0-1.2-.1c-.4.1-.6.2-.6.5-.1.5-.1 1.7-.2 2.7a5.77 5.77 0 0 1-.3 1.4 1.38 1.38 0 0 1-.3.4c-.1.1-.2.1-.4.1-.6-.1-1.6-.5-2.7-.8a8.33 8.33 0 0 0-1.5-.4 2.4 2.4 0 0 0-1.2 0c-1 .2-1.8.4-2.6.6a11.72 11.72 0 0 0-2.4.9l-1.2.6c-.4.2-4.2 1.7-4.2 1.8 0 .4.1 1.7.1 3a4.42 4.42 0 0 1-.2 1.7c-.1.2-.1.4-.2.6s-.2.2-.3.2h-.6a4.87 4.87 0 0 1-1.2-.1 1.27 1.27 0 0 1-.6-.1 20 20 0 0 1-2.6-.5 11.76 11.76 0 0 0-2.1-.3h-2.4a16.41 16.41 0 0 1-2.3-.2 20.69 20.69 0 0 1-2.2-.4 14.27 14.27 0 0 1-2.2-.8c-.7-.3-1.5-.7-2.2-1s-5.3-2-6-2.5a6.73 6.73 0 0 0-1.1-.7 1.42 1.42 0 0 0-.6-.2l-.7.4-1.4-.3-.7-.3-.8-.8h-.6l-1 .7-1.6.1-1.3.6-.5.6-.3.7-.1 1.5-.1 1.7-.1 1 .9 2.1.1.5-.5 2.2-.4.3-.1.1-.8.1-.9.8h-.3l-.7.1-.9 1.4h-.1l-.4.2-.7-.2-.4.1-.5 1.2-.4.5-.6.3-.9-.1-.2.2.3 1.3-.3 1 1.6 3.4.7 1.3 1.2 2.2v1.7l.4.8 2.1 1.7.5-.1 1-.8h1.3l2.1.6 1.1.3.7.7.7 1.2.4 1.5.2.2.4.1.5-.1 1-.6.9-.1.3.1.2.3.4.4.2.6v1.1l-.2.9-.2.7-.2.7-.6 1.2-.5.5-.5.1-.3.2v.5l.4.3.4.1h.2l.6.7.2.2 1.4-.3.4-.3.5-.9.5-.4h.3l.1.1.6.5.6.5.1.1-.4.7-.3.2h-.2l-.2.2-1 1.3-.7.4-.9 1.6h-.3l-1.2-.1-.6.2-.7-.8-1-2.3-.1-.5.3-.4-.2-.2h-.4l-.6-1.7-1.3-1-.6-.1-.6.2-.2.2.1.3 1 .8.9 1.9 1.8 3.7.3.6 2.2 3.4 1.4 4 .2-.1.2-.8.2-.3.2.1.3.3-.2 2v.1l.1.2 1.6.9 1.5 1.7.5 1.1.6 3.1.7 1.6.4.3.3.1.7-.2h.6l.3.2.3.2.7.9.9 1.7.1.2 1.3 3.9 1 1.3 1.1 2.2.7.6.1.3.2.9.5-.2.2-.3.3-.1 1.8.3 1.1.5 1.2-.1 1.1-.3.9-.5h1.1l.9.3.9.5.9.7.2.2 2 1.7 1.5 1.6 1.4 2.1.5 1.5.8.7.3.8.9.3.2.5.2.2.1.1.3-.1.8-.9h.5l.7.4 1.3 1.3 2.1 1.4 1 .1.8-.2 1-.6.7.5 1.4.5 1.1.4.5.5 1.5 2.4 1.1 1.2h.4l.7-.4 2.3-.6.9-.4 1-.9.4-.2.5-.3 1.3-.2.6-.5.6-.1.5-.8.6-.4h.6l1.1.4.5-.1 1.5-1.3 1.4-.7.2-.4v-.4l-.2-.4-.8-.4-.2-.2-.1-.5.2-.8.3-.3h.6l-.1-.4-.6-.2-.5-.6v-.1l-.3-.8-.1-.2v-1l.1-.4.3-1.8.6-1.1.2-.2.4-.5 1.2-.5 1.5-.1.4.2 1 1.2.8.3.5.4.5.4v.5l-.3.6-.1.3.1.5-.1.4.1.7.4.6.2.9.2.2.3.3.3-.3-.1-.4-.2-.5.3-1.5-.6.6.1-1.4v-.1l.1-.6.2-1 .6-2.8.6-1.9.7-1.4 1.3-1.3 1.4-2.9.5-1.1 1.1-2.4v-.1l.8-.8.6-1.2.6-2.2.7-2 .4-.7.9-.9 1.2-1.8 1.3-1.4.5-.3 1.7-.1 1.1-.9.8-.1.9-.4 1.7-1.3.9-.5.5-.3.5-.1.3.2h.6l2.1-1h1.8l.4-.2.3-.1h.2l1.9-1.4 1.7-.8 1-.8.5-.4 2.7-1h1.1l1.7-.3 6.2 1.3 1.1.2 2.4.2 1.3-.2.7.2 2-.2 1.2-1 .8-.5 2.4-.5.6-.1.7-.9.3-.9.5-1.4.7-1.2 1-1.3.7-.5 1-.4 3.1-.4.3-.3.9-.9.8-.4 1.3-1.7.6-1.5 2.1-3.4.5-.5.5-.5.6-1.5.4-1.1.8-1.5 1.5-1.2.9-.3h1.7l4.1.9h1.3l1.9-.3 1.3.3 7.5-.2 1.7-.5 1.9-.6 2.1-.3.3-.2.5-.4 1.1-1.2.7-.5.4-.1.3-.1h.1l.8.3.5.2h.2l2.6.3.8.1 1.7.8h.5l.5.1.2.1.9.3h.6l1.2-.6 2.4-.7h1l.7.3h.5l.6-.5.2-.1.3-.2 1.1-.4 1.1-.1 1.2.1 2.9.9.8.5.7.8h.3l.8-.5h.6l.4.2.1.1.2.2h.3v.3l.3.4h.3l.8-.8.6-.1 1.4.2 1.2-.3 1.4-1.6h.7l.8.2.9.2 1.4-.2h.4l.2.1.5.2 1 .6 1.1 1.1.6.3.7.5h.7l.7-.4 1.1.2.9-.1.6.6.2.2 1.6 1.5 1 .4h1l.8-.2.4-.1h1.6l.6-.1 2.5-1.2 1.6-.3.8-1.1 1-1.1.8-.4.8-.2h.7l.4.2.3.1.6-.1 2-1 1.7-.5h1.2l.5.2.1.1h.7l.1.1.8.5h.5l.6-.4.1-.1h.6l2 .2 1.2.1 1.5-.6h1.2l1.6.4 2.6.2 2.7-.1.2.1.4.2h.5l.4.2.1.1.2.1 1.1-.1.9.5.5.1.3-.1 2.8-1.5.7-.1.5.1.6.4 2.9 2.7.3.5.7 1.2 1.1 1h.4l.5-.6 1.1-.3 1.2-.1.7.2 1.2.8.6.9.4.3.5.1 2.1-.1 2.9-.1 2.3-.9 1.5-.3.6-.3 2.1-1.9.8-1 .4-.9.2-.5.7-2.6.7-1.4 1.9-3.1.9-.7.6-.2 1.2.1 1.3-.7h1.5l1.1-.4.6-.2 1-.2.6.2.3.1.5.4.7.6.6.6h.2l.5.1.8-.4 1.1-1 1.3-.9.4-.2.8-.3 1-.2.9.1 2.2.8 1.2.7 2.7 2.2 1.6 1.7.4.4.1.1 1.9 3.4 1.3 2 1.1 1.3.3.2.7-.5.8.1.7-.6.6-.2.9.2.1-.1.3-.2.9-.1.4-.3-.3-.7.3-.3h.5l.5-.9.6-.6.6.1.7-.3.7-.1.5-.4.3-.1.5-1.3.2-.9v-.7l-.2-.7.2-.5h.1l.5-.2.9-1.3 1.1-1 1.5-.1.4-.3.3-.5v-.6l-.1-.6.4-.4.1-.4-.4-1 .8-1.8.4-.3.3-.6h.6l.5-.4 2.1-3 .6-.2h.7l.9.2.6-.3.3-.5.2-.8v-.9l-.1-3.4v-.3l.7-.5.4-1.2.5-1.1v-.9l.2-.8 2-4 .5-3.3.5-1.1.5-.6.9-2.8v-.6l.2-3.4.8-1.8.8-2 .1-.3.4-.4 1.7-1.2.2-.7.4-.2.2-.6 1.1-1.2 1.2-1.5 1.1-1 .4-.8.8-.9 1.7-3.7.5-1.1.6-.6.6-.2.7.2.4-.3.5-1.2.5-.4h.8l.1-.1-.1-.4.2-.3 1.1-.5 2-1.8.3-.1.5.1.3-.3.1-.2 1 .3.5-.6.8-.1 2.2-1.5h.7l.4.2.2.4.3.1 1-.6.1-.1.2-.3v-.1l-.3-.8v-.8l.7-1.8.1-.3.8-1.6.7-.8 2-1.4 1.1-.5 1.5-.3.4-.7.1-.2 2.6-2.7.2-.3.9-.6.7-.2 1.1-1 .8-.1 1.1.3.8.2h2.5l.2-.3v-.4l.2-.3.6-.5.6-.2h1.4l2.7.6 1.2.5.3.4v.5l-.3.7.2.3.5.2.5.1.9.2 1.7.1 1.4.4.2-.2-1-.7-.2-.2-.2-.4v-.5l.2-.5.6-.6.5-.4.7-.2 2-1.7.8.7.8-.2.8.2.6-.2.7.5h.8l.4-.5.5-.3h.5l.4.3h.5l.2-.3-.2-.9-.2-.2-.4-.5.2-.2.5.2h.8l.4.2.2.4-.2.5v.1l-.2.5v.4l.8.8.9.1.4.4.1.3-.2.3h-.7l-.1.3.1.3.2.1 1.2-.2 1.4.3 3.3-1.5.5-.3.1-.4.1-.3.2-.1.5.2.5-.3.5.1.5-.7.3-.1.3.1.2.3-.2.5.3.1h1.6l3.6-2.1.6-.2 1.4-.1h.2l1.1-.3 1.3-.9.9-1.4.9-.4.3-.5-.2-.2-1.1-.1-.2-.2-1-2.2-1.1-2.9v-.2l-.5-3.3.3-2-.1-.4h-.2l-.2.5-.1 3 .4 3.5.1.5.3.7.7.8.3 1.3-.2.4-.5.3-.4.5h-.4l-.3-.3-.6-.1-.4-.7-.4-.2-1.8-.4-2.6-1.7-1.1-1.9-2-2.9-.5-1.2.7-1 .3-1.1.6-1 2-1.8.9-.8.4-1.2v-1.6l.5-1 .8-.8h.5l.2.2.8 1.7.2 1.2 1 .5.2-.3v-.4l-.4-.9-.1-.1-.2-1.6-.3-1-.2-2.2-.1-1v-.6l.6-.6.2-.6.4-3 .2-.4.3-.3.9-.6.4.1.2-.2-.1-1.4.2-.7 1-1 .7-2 .3-.4.2-.2h.1l.4-.2 1.8-.2.1-.1.4-.3.8-1.8.4-.7.1-.2-.7-1.5-.2-.8.4-6.8.4-2.4.2-1.2.1-.4 1.2-3 1.6-2.3.9-.7.8-.3 1-.2h1.1l.5.1.6.2 1-.1.3-.1.7-.2.6-.6.4-1.9-.9-6.5.2-2.2.3-1 .5-1.8.2-.5.2-.4.6-.5.7-.2.7-.6.2-.2.7-.3.4-.7 1.5-1 .4.1.9.9.9.4h.5l.3-.4-.1-.5-.4-1.7v-.8l.3-1.6.5-1.2.7-.8v-.1l.3-1.4.5-.2.4-.8.4-.4 1.9-1 .7-.5 3.1-2.3 1.8-1.1.4-.2 1.1-.1.8-.4h1.4l.7-.6.3-.3 1.1-.1.7-.4.6-.3 1.4.2.5-.3.7-1.3.6-.5.7-.2h1.1l1.3.2 1.5.7.4-.1.3-.5.7-.4 1.1-1.2.8-.9.5-.8-.1-.3-.7-.4-.2-.3-.1-.5.2-.7 2-2.4 1.1-1.3.7-.5.9-.4h1l.7.1.9.1.5-.2.5-1.2.4-.2.7-.1.8.1.6.3.4.6.5.1.3-.2v-.3l-.6-.7-.1-.5.3-.8 3-2.4.8-.7.9-.5.5-.1.3.2.2.7.3.1.2-.4.2-1.1.5-1.2.3-.5.9-.6.5-.7 1-.3.3-.6 1.1.1.7-.1.4-.3.1-.5-.1-.7-.7-.6-.3-1.2-.2-.2-.9-.1-.5-.6-.8-.4-.2-.3-.2-1.1-.2-.6-.1-.3.2-.4.7.1.2-.2v-.5l-.5-.5-1.2-.7-.4-.2-.8-.7-.5-.7-.5-.2-2-.1-.3-.2-.6-.9-.7-.5-1.6-.7-1.2-.4-1.2-.2h-2.1l-1.5-.3-.9.4-1.4-.7-.3-.3-2.7-2.5-3.2-3.3-.1-.1-3.4-4.3-.9-1.5-.3-1.2-1.1-2.4-1-1.7-.1-.2-.6-1.1-3.8-10.6-.1-.5-.2-1.2.2-1.1.3-.2.8.1.4-.2.2-.3-.9-1.3-.5-1.5-2.1-4.1-.3-1-.1-.3-1.1-2.2-2-5.7-.9-2.2-.5-1.9-.6-2.4-.3-2.6.3-2.4.1-.5.1-.4-.1-.5-.1-.5.3-.5.1-1.8v-.6l.2-.8.1-.4.9-1.9 1.2-2 1.7-2.4.5-1.1.4-2.8.3-.8.3-.4 1.9-2.3 1-1.3.2-.3.8-1.4v-.1l.9-2.4.5-2.5.5-1v-.1l4.6-8 2.2-3.2.1-.2 2.1-2.6.1-.1 1.1-1.1 1.8-2.5 1.3-1 .1-.3.7-.9h.1l.3-.3.6-3.8.4-1.1.6-.8.1-.1.3-.4.3-.9.1-.4-.1-1.1-.2-.5.2-.7.8-1.2.5-1.5.2-.2.4-.5 2-1.6.9-.3 1.3-.1 1.2-.8 1-1.2.5-.4.2-.3.1-.9.9-2.5.6-1.5.9-2.2.7-1.2.6-.9.9-.9 3-2.1.9-.4.5-.5.4-.6 1-3.2 2.7-2.6.6-.2.4-.5.9-.8.3-1.2 1.1-.6.3-1.1.9-1.7.8-.5.8-.8.8-1.3.4-.4.7-.1.1-.2-.2-.4v-1l.8-2.8 1-1.6 2.9-4.7 1.4-2 2.3-3.8.3-1.1.3-1.3 1.8-3.3.9-.8 1.7-2.3 1.5-1.3.9-1.2.5-.2 2.6-.3 2.4-.2 1-.9h1.8l.5-.2 1.4.2.6.3.1.4-1.3 2.6-1.3 1.3-.5.5-.5.1-1-.1-.5-.3-1.2.1-.3.3-.2.5-.8-.2-1.5.2-.7-.2-.5.7h-.5l-.1.3.1.6 1.3.6 1.2.4h.7l2 .3 1-.6 1.2-1 1.4-1.4 1.2-1.9.6-.9 1.2-2.5.1-.1 1-.8 2.1-1v-.6l.2-.9.3.8.9-.6 2.4-.2.8-.4.4-.4-.1-.6.6-.3.6-.8.8-.7 1-.9.4-.9-.4-1.2-.5-.6h-.3v.9l-.2.5-1.5-.3-1.6-.5-1.4-1.5-1.3-1.7-.3-.7-.6-1.3-.5-.4-1.2-.4-1.2-.2-.4.1.6.4.2.1 1.6.5.3.2.1.3-.3.4-1.7.3-.7-.1-1.1-.5-.6-.4-.7-.9-.9-1.1-.2-.7.2-.4 1-1.1.6-.2 1-1.2.2-.7.9-1.2 1.8-1.1 1.1-1.1.4-.5.8-1.4 1.2-1.1 1.2-2 .8-.7 1.6-2.6 1.8-1.4.7-.9.2-.3.8-.8.5-.9.4-.1.4.2h.3l.8-1.2.3-.7.7-.9 2.3-2.3.9-.6 1.3-.5.3-.2.6-.4 1.1-.4 2.6-.5.7.2.5-.1 2.1-.9.9-.1 1.3.1.7.2.6.7.4.1.4.6.6.4.4.1.7-1-.1-1 .2-.8.6-.7.8-.7 1.6-1.4 1.7-.5 2.5-.4.6-.8.6-.1.6-.4 1.7-.3.5.2h.8l.9.3.4-.2h.5l.8-.4 1-.6 1.1.3.1-.1.6-.3 1.3-1.1.4-.2 3.9-2h1l1.6-.5 1.8-.8 2.4-.5 3.6-.6 1.4.1h.8l1.3-.6 1.1-.2 1.8-.2 1.3-.9 1-.3 1-.6h.8l4-.8.8-.2 1.4-.9 1.3.2.8-.2 1.4.1 1.5-1 .4-.1h1.1l2.3-1.2 1.4-.4.4-.1 2.9-.5 4.1-.2 4.6-1.4 1-.4 2-.9 2.2-2 .5-1 .1-.5.3-1.3.4-1.7 1.4-1.6.1.3-.4.9.3.1.8-.9.6-1.5.7-1.2 1.4-1.4 1.1-1.4.3-.5.1-.2.9-1.6.5-.9 1-.9.5-.3 1.8-1.1 2.8-.8 2.4-.9 3.3-1.9 1.7-1.2 3.4-2.5.8-.6 2.8-.9 1.3-1 2.1-1.2h.7l1.3-.7 2.2-.7.9-.6.4-.2 2.1-.7 1.3-.8 2.1-.6 4.7-2.6 1.1-.2.6-.1.5-.1.3-.2.2-.6.4-.3.2-.6.3-.7 1.4-.8.9-1 2.2-.9 1.9-.2.6-.5h.8l.8-.6.4.1h.6l1.6-.9.9-.7 1.9-2 .9-1.2.8-.7.5-.1.5-.1.1-.1v-1.3h.1l.4-.1 1.3-.1.3-.6.8-.1.8-.9.7-.3.5-1.5.4-1.2 2.5-2.5 1-.6.7-.2h.1l.4.6h.3l1-.6.1-.6.2-.2.3-.4.3.1h.2l1.2-.2.5-.2.2-.4.4-1.6.7-.8.9-.2h.2l.3-.5v-.4l.2-1 .2-.6.4-.2.1-.6-.1-.7.2-1 .4-.7.4-.2v-.6l-.3-1.4-.4-.5h-.7l-.8-.8-.5-.7.1-2v-.5l-.4-.7-.6-.4.8-.5.1-2.1.2-.5.4-.2.4.2.5-.5-.5-1.5-1.2-2-.3-.4-.7-.9-.6-.1-.1-.3.2-.5-.3-.4h-.7l-.7-.5h-.3l-.4.4h-.2l-.1-.8-.9-.5-.5-.5-.3-.8-.2-1.1-.2-1.5v-1.5l-.2-.8v-.8l-.3-.5-.2-.4.3-.1.5-.7.6-2.4-1-.6-.2-.3h.3l1 .4 1.2-1.3 1.3-1 .6-.2h.8l.2.3.3.4v.7l.3.3.9.1 1.1 1 .4.1.5.7.3-.4.3-.4.1-1 .1-.1.5.1.3-.1.2-.1.3.9.4.3h.9l.2.1.2-.3-.1-.2-.6-.2-.2-.8 1.8-.4.6-.7.3-.6-.8-1.1v-.5l.1-.2.5.2.6.2.2-.4-.6-.5v-.3l.5-.6-.2-.2.1-.2.5-.1.6-.8 1-.3.1-.3z" transform="translate(-32.1)"/>
  </g>
  <g class="not-spain" id="foreign">
    <path id="polygon21" class="cls-3" d="M334.7 867.4l-.3-.3-.1-.2-.2-.9-.4-.6v-.7l.1-.4-.2-.5.1-.3.3-.6-.1-.5h1.1v.2l-.1 1.4.1.7-.2 1.5.1.5.1.4-.3.3z"/>
    <path id="polygon53" class="cls-3" d="M63.5 388l.3-1.2.5-.6.9-.7-1.2 1.3v.2l.2-.1-.7 1.1z"/>
    <path id="polygon55" class="cls-3" d="M64.6 388.9H64l-.2-.4.2-.8 1.2-1.4.8-.1.4.6-.8.3-.3.3-.5 1.3-.2.2z"/>
    <path id="polygon57" class="cls-3" d="M63.6 391h-.3l-.1-.3.4-1 .6-.4 1-.3.9-1.1.3.6-.9 1-.7 1.4-.4.2-.8-.1z"/>
    <path id="polygon59" class="cls-3" d="M40 577.1l-.1-.2-.1-2.2.1-.6.3-.5.4.1.2.4-.3 2.1-.5.9z"/>
    <path id="polygon61" class="cls-3" d="M41 579.9l-1.7.1-.1-.2.6-1.6.3-.5.4-.1 1.1 1.1v.4l-.6.8z"/>
    <path id="polygon63" class="cls-3" d="M35.1 582.8l.9-2.1 1.1-1 .5-.3.1.5-.8 1.6-.3.4-.7.3-.6.7-.2-.1z"/>
    <path id="polygon65" class="cls-3" d="M61.9 618.4h-.2l-.2-.4-.6-1.7-.4-.1-.4-.8v-.4l.3-.1.3.2 1.3 2.8-.1.5z"/>
    <path id="polygon67" class="cls-3" d="M53.9 620.3l-.8-.9.3-.6.6.5.1.4-.2.6z"/>
    <path id="polygon69" class="cls-3" d="M63.3 625.3h-.5l-.8-.6v-.3l1.4.4.1.2-.2.3z"/>
    <path id="polygon71" class="cls-3" d="M132.5 774.5v-.6l.2-.5 1.8-.9.2.4-.7 1.2-.7.3-.8.1z"/>
    <path id="polygon73" class="cls-3" d="M130 778.6l-2.4-.6-2.3-1.1.5-.9-.1-.1-.1-.2-1.4-.4-.2-.3v-.3l.3-.3.7-.1.5.1.9.6.8-.1.5.1.7.8.8.5.6.7 1.3.3.2.2-.2.4-.5.5-.6.2z"/>
    <path id="polygon75" class="cls-3" d="M131.7 777.2l-.1-.2.3-.5 1.3-1.1.2.3.5-.6h.3l.3.2-.5.7-1.6 1.1-.7.1z"/>
    <path id="polygon79" class="cls-3" d="M904.7 192.4l-.3.5-.1.5.1.5v.1l-.8 2.1-.1 1.4.1 1-1.7 1.2-.7-.1-1.5-1-.3-.1-.2.3-.4 1.3.1.3-1.5 1.6-1.4.2-2 .9-1.1.7-1.5-.2-1.9 1.5-2.4.5-.2.1-3.2-.4h-.2l-.1-.1h-.1l-.5-.2-1-.7-.3-2-1.4-1.6-.1-.3.2-.5 2.2-1.9.3-.3.1-.6-.1-.4-1.2-2.1-.6-.1-1 .2-.4-.2-.1-1.4.6-1 .2-1.2-.4-1.2-.1-.5.8-.5.3-1 .9.1.7-.3.2-.5.6-3.8.4-.3.6-.1 1.1.4 1.3-.3.4-.1.4.1 2.6-.6.7.1.1.1.6.7 1.9 1.1 1.5.4h1.2l2.2 1 .6-.1.3-.1 1.9-.7h.4l.5.7 1.3.6 1.2.3.3.2v.4l-.5.7-.2.5.2.4 2.7 1.2.6.4.6 1.1.1.1H907.4l-2.2.6-.3.2-.2.2z"/>
    <path id="path111" class="cls-3" d="M88.6 260.7l.5-.3 1.6-.7 1-.6.6-.7.5-1 .8-2.5 1.1-1 1.9-.7 2.1-1.1 1.4-1.5.3-.5.6-2.3.5-.6.9-1.1 1-.4 1.3-.4.7.1 2.5.2 2.2-.5.6-.6.5-1.5.4-.2.7-.2 1.4.2h1l1.5-.4 2.1.1.5.2h.9l1.4-.4.9.2.6-.1 1.1-.8.5-.1 2 .1.5-.1.7-.4.7-.8 1.5-.6.9-.5 1.2-.7 1-.3.8-.8.1-.1h1.3l.3-.1.7-.2.2-.1.4-.4.2-.2.1-.1.3-.3h.6l.3.2v.8l.1 1.3.3 2.1.4 1.8.2 1.5v.4l.7.1 1.9-1 1.6-.3 1 .2 1.3.7 1.1 1.5.1 1 .2 1.3-.3 1.8-1.3.7-1.1.6-1.4 1.3-2.1 1.1-.3.4-.3.4-.5.7-.3.7v.1l-.4.6-.5.3-1.6 2.7-.6.5.2.5-.1.2-.2.4-.1.2.1.3.2.6.4.8.6 1 1.8.1.3.2v.1l.1.1.1.2.2.3.6 2.2.3 2.5.1 1.1.1.3 1.6.6h.3l.9.1.4.2.4.2.6.3h1.3l1.1-.2h.1v-.5l.4-.6 1-.3.4-.1 1.3-.9.3-.3.9.1.6-.4.9-1.7.6-.5.8-1.5.4-.3h1.6l1.8-.5.5-.3.7-.8.3-.7.1-1.4-.1-1.5.2-.4.7-.2.3-.1.8.3.4-.1.3.7v.8l-.8 4.7.3.7.6.5 1.5-.4h.6l.9-.6.1-.5.2-1 .9-.1 1.9-.2 1.3-.4 1.7-1.1h.1l.8-.2h.3l.8.2h1.3l1-.6.7-.4.6-.1.4.2 1.7 1.3 1.1.9.8.5h.8l1.6-.5 1.6.4.8-.3.5.1-1.2 1.1-1 1.2-.5 1.6v.3l.2.1 1.2.6 1.1.3.9.1 1.3-.3.8-.6 1.5-.5 1-.5.3-.2.4-.6-.4-.9 1-.7 1.7 1 .9-.1h.7l.2.7.4.6.3.7.9.9.2.2.4.4-.2.7v1.2l.5-.1 1-.2.7-.5.2-.6.7-1.3 1.4-1h.8l1.5.5 1.2.1 1.6-.5 1.1-.3 1.1-.1 1.2-1 1.2-.5 2.2-.7 1.1-.8.3-.2.8-.5 1.3-2.7v-.1l.1-.1v-.5l-.3-.8-.3-.6-.2-1.1v-.1l.1-.5.1-.4v-.1l-.4-.7.1-.2.1-.5.1-.3v-.1l.5-1 .1-.1.3-.3.3-.2.5-.2 1.3-.3 1.8.6.7-.1 1.4.5 1.5 1 1.1 1.9.4.3.7.1.7-.2 1.5-.1.8.3 1-.1 1-.9.9-1.1.8-.3h.6l.9 1.1.2.1.4 1 .1.1.2.2.8.4.8.2h1.7l.9.3.8-.2 1.5-.4.3-.2.6.2h.1l1.5-.1 1-.4.4-.4.3-1.6.1-1.4.3-.6 1.2-.1.7.1.7.3 1.1 1.3.8 2.4.9.9h.9l1.1.2 1.4.2 1.2.1 1.2-.2 1.3-.3 2.3-.3h.2l1.9-.4.6-.7.2-1.5.7.1.4.3.4.8.8 1.3.7 1.3-.2.8-.6 1.1v1l-.3.9-.5.6.1.7 2.1.5 1 .5.4.5-.2.4-.2.4.1.2-.5 2 .1.6-.2 1.5-.5.6-.2 1.2-.4.6-.2 1-.3 1.8-.5.9-1 .9v.5l.6.5.2.1.2.6.4.4.5 2.1v.4l-.4.8-.4.9.8.1 1.5 1.1.7.3 1.2 1.1.5.8 3.1-1 .4-.2 1.2-1.8h.4l1 .5.6.1.3.1h1.4l1.1.4.7.1 1.6-.3.5.1.5.2.7.6.9.5.6.2 1.7.5h.1l.9.5.5.5 1.4 1.2 1.3 1.9 1 1.4.4.4 1.7.6 1.1 1.4.1.6-1.1.5-.5.4-.4.5-.3.6-.1.2-.3.1-.6 1.4-.6.9-1.9 1.6-.1 1.2-.2.3-1 .8-.4.8-.7.7-.1.5-1.3 2.8-.2.5.1.8v.3l-.3 1-.5.7-.5.4-.3.6-.1.5-.2.8-.4.5v.1l-.2.1h-.1l-.1.1-.1.1h-.1l-.9.1h-.3l-.7-.9-.7-.2-.8.1-.5.6-.2 1 .7 1.3.1.5-.2.3-1 .9-1.2.7-.5.9-.4.4-.5 1.6-1 .9-1.3.6-.2.2-1 .7-2.7 2.8-1.6.6-.2.1-.6.1-.6.2-1.2 1.1-.3.4-.4 1h-1.5l-.6-.2-.8-.2-.4-.2-.5-.2h-.4l-.9.2-.9.4-1.9 1.9-1 1.3-.5.9-.4.6-.7 1.7-1.4 1.8-1.7 1.6-.7.5-1.3.9-.3.5.1.5.4.3.6.8.1.7-1.3 1.8-.7 1.7-.3.7-1.2 1.2-.2.3-.5.8-.4.2-.9.5-1.8.4-2.4.2-1.7-.5-.4-.1h-.1l-1.1-.1-.4.1-.8.4.1.4.1.3v.6l.1.3.9.8.9 1.4 1.3 1.6.8 1.1.5.9.9.6.3.4 1 2.9.1 2.6.5.7.6.5.2.4 1.3.4.2.1.3.4.4 2.2.1.8v.1l-.4.3-1.2.2-.1.2.2.7-.3 1.2.4 1.7-.5 2.2-.1 1.9-.3 1.6.2.7.1.2.4.8v.5l.4.3.4 1.3.1.8.4 2.9.2 1.4.5 1.9v.9l-.3 1-.6 1.6-.8 1.4-.6 1-.1.2-1.2 2.5.9.6.6-.1 1.1.8.8 1.1.2.6.4.8-.1 1-.4 1.2-.4.2-.5.7-.8 2.1-1.1 1.2-.8 1.8v.8l.5 1.3.3.8-.1.8.2.4.8 1.6.7 1.2.3.5.4.2.7.7.8.2.5.3v.5l-.7.6-.1.3-.3 2.6-.4.3-.7.2-1.2.6-.7.6-.2.2-1.1.8-1 .9-.2.9.2 1.3-.1.9v.1l-1.4.7-1.7.3-3.9.2-.3.1-.5 1-.6.6-1.6.1-1.2.7-.7 1-.4 1.1-.4 1.4-.2 1.2.2.7.2 1.7.4.6.1.5-.2.9.2.9.7 1.3.8.9.6-.4 1.4.3.5.2h.1l.7.2.3-.1.3.1.2.7.5.3.2.1.4 1.1.4.6.2 1 .2.4.2.2.5.4.1.3v.1l.6.2h.3l-.1.3-.1.3v.5l.2.2.1.1.4.4.5 1.1-.1.3v.1l.1.1.1.2v.1l.1.4v.2l.2.3.1.1.6.7-.4.3-.2.4-.3.7-.1.7-.8 2.2-.1.2-.3 1.2.4 1.5-.2 1-.3.4-.8.9-.2.8.4 2.1-.2 2.7-1.2 1.7-.9.6-.1 1.2-.9.5h-.1l-.2.1-.5.2-1.1.1-.8.8-.7.7-.2.8.7 2v.9l-.1.7-1 2.2-.1.5.1 1-.1.3v.1l-.3.5-.3.5-.2 2.3v.1l-.2 1.2-.5.8-.3.2-2.3.8-1.2.6h-1.3l-1.3-.5h-.1l-.4-.1-.6-.1h-.4l-2.2.5-.9.2h-.3l-.7-.1-.4-.1-.6-.2-.4-.2h-.6l-5.4-.4h-.2l-1 .4-3.9 1.5-1.1-.1-3.6-.3-1.2-.1-.4.1h-.2l-.9-.1-1.5-.5h-.1l-3.4-.8-1.8.2-1.1-.1-1.1.3-.5.3-.3.3-.1.4 1.4 3.8.3.7 1 1.7.9.9.9.4.8.4.6.5.2.3.5.8.7 1.7.4.4.6.5.6.1.6.1.2-.1.5-.1.6.9.7 3 .4.8.5.5 1 .5h.9l.8.7.5.2 1.4.5 1.2.7.2.2.3.3.1.4-.5 1.7v2.4l-.2.6-.6.7-1.5 1.2-.2.5.9 2.7.3 1 .1.3.2.2 1.5 2.4 2.1 1.8.9.8 1.8 1.8.2.5-.3.9-.5 1.4-.1 1.6.3 2.7.7 1.3.4.5.5.6.9.5.9.3 1.8.3 2.3.4.9.8.1 1.2-.4 2.2-.3 1.5v.5l.4.7.5.6.5.4 1 .2 1.4-.1 3.7-1.7.8-.1.5.1 2.1 1.5.9.7 1.9 1.9 1.1 1.6.1.5-.4 1.5.1.4.8.9.2.4v.6l-1.3 2.4-1.6 3-.7.8-1.3 2.1-.1.2-.5 1.7-.3.4-1.6 1-.2.5.2.7.2.4.8 1.5.1.7-.2.8-.3.5-1.3.5-.3.1-.5.3-.9 1.2-.2.2-.7 2-.4.5-.6.1h-1.8l-.6.2-1.6 1.5-.5 1-.4.8-.4.4-.2.1-1.6.7-.8 1.5-.8.8-2.2 1.2-.2.1-.9.5-.5.4-.3.7-.8 5.4v3.3l.3.3.3.1 1.2.3.1.5-1.2 1.9-.4 1.6-1 1.7-.3.7-.5 1.2-.2.4-.8.8-.2.5-.3 1.7-.4.8-.4.8-.2 1-.3 1.5.1.4.4.1.7-.4.4-.2.1.5-.6.8-.6.8-.3 1.5-1.1.9-.2.4.1.3h1.4l2.2 1.4 1.2 2.6 1.6 2.1 1.5 2 1.6 1.8.5.6 2 3.4.7.9 1.2 1.2.3.3.5.6.3.6.7 3.3v.4l1.5 2.2 1.1 2.3.1.2.7.6.7.6h.1l.6.1h.2l.1-.1.3-.6.2-.1.3.2.6.4 1.4-.5.7-.1.2-.1.4-.2.4-.2h.1l.2-.3.3-.4v-1.1l.4-.1.9.1 1.1-.4h.8l1.3-.9.5-.2.6.1.1.2.1.2.1.3v.2l-.5 3.2-.1.3-.6 3.2-.4 1.4-.3.9-2.7 4.5-.1.4.1.6.1.5v.6l-.1.5-.5 1 .7 1.4-.3.5-2.4.8-1.5.1-1.3-.5-1.8-1.5-.7-.2H225l-.4.3-1 1.5v.2l.4.8v.6l-.8.7-3.5.3-.4-.1-1-.9-.3.1-.5.2-.6.7-.2.3-2.1.6-1.2.5-.5.9v.9l.3 1.2.3.9-.8 1.6-.5 2.1-.5 1.1-.8 1.7.4.6.1.4-1.1 2.1-.6.7-.3 1.2-2.1 2.8-1.7 1.3-.3.2-1.3 1.4-1.4 1.5-1.2.9-.8.1-.6.7-.2 1.1-.7 1-.4 1.9-.4 1.2-.6 1.7-.1 2-.4 1.9-.3.7-1 1.2-.3 1.2-.6.5-.5 1.2h-.4l-.2-.2-.2.6v.3l.1.4-.3 1.2.2.4-.4.3-.7 1-.2.6.7.2.1.2-.2.3-1.3.1h-.2v.2l.1.5v.1l.5 2.3.1.4.4.1 1.4.5.2.4v.1l-.1.8.2.5 1.8 1.3.3.8-.3 1.5.7 1.5.3 2.2.8 1.5-.2.4-.7.1-.2.2h-.3l-.1.3.3.5 1.2 1.1.5 1 .2.8.1 1.4-.2 1-.3.5-.3.8.3 2-.2 1 .5 1 .1.3.3 1.6.6 1v.4l-.8 1.7-.2.7.3.5 1 .8.3.7.1 2.2.3 1 .1.4.4 1 .3.6v.3l-.2.4-.4.2-.9-.1-1.6-.6-2.1.1-1.9.3-1.4.6-2.4 1.3-.4.2-4.6 2.8-.1-.3.6-.6 1-.5 2.1-1.7-.1-.2h-.3l-.8.7-.5.3-.8.4-1.2 1.1-.9.5-.2.3-.3.6-1 .7.2.2.8-.1-.4.8-1.4 1.2-5.7 3.7h-.3l-.7-.2-.4.1-.3.5v.9l-2.5 1.9-1.5.9-.5-.1-.6.1-.5-.2-.1-.5.2-.4 1.1-.3.2-.1-.7-.4-1.2.6-1.5.3-1.3.4-.2.1-.8.4-.7.7h-.5l-.1.2.2.2.9.8v.4l-.5.7-1 .7h-.7l-2.6-2.3h-.4l-.5.2h-.5l-.3-.3-.1-.2v-.1l-.2-.7-.3-.1-.7.7-.6.1-.9-.3-.4.2h-.5l1.7 1.9.5.7-.2.2-1.5-1.1-1.8-1.8-.2-.2-7.3-5.5-2.6-1.2h-.3l-.4-.2-2.6-1.1-2-.4-1.2.1-1.3.5-1 .2-1-.2-1.2.4-.8.1-1 .5-.2.1-1 .2-.8-.4-1.5-1.3-1-.6-.9-.4-1.4-.3-1 .2-1.5 1-.8.2-1.3.1h-.4l-1.1-.1-2.2-.8-.6-.4-2.7-.4-.2-.3-.3-2.8.3-.5.1-.1.2-.2.7-.6.1-.2-.3-.4-.7.5h-.3l-.4.6-.2.4v.1l-.1.2-.2.5.1.7.1.7-.1.4-2.7-.1-.4.3-.4-.1-.8-.7h-1.7l-.2-.2.1-.2.5-.1.6-.3v-.9l.1-.5.5-.7-.1-.4-.5.1-.2.4-.1 1.1-.4.6-.5.1-.4-.2-.5-.8-.2.2-.2.1-.2 1-.5.5.3.1.3.1.1.1-1.1.2-1.4.8-.8 1-.2.9.1 1.2-.2.1-1.2-.4-4.2.2-.4.2-1.4.7-1.6.3-.8.7-.4.1-.8-.4-3.1.7-.7.4-.6.6-.3.6-.3.2-.5-.1-.9.1-.9.3-.7 1.2-.5.4-1 .3-.6.5v.9l-.2.4-1 .1-.2.9-.3.1-.2-.4-.1-1.5-1-1.1-1.2-.3-.3.1-.1.7-.3-.2-.5-.1-.1-.2.5-.6.2-.7.5-.5.1-.3-.2-.6.2-.5 1.2-1.2.4-2.2.3-.7 1.2-1.1.4-.7.5-.9 1.6-3.4.3-.9.1-1.3-.3-1.2-.5-1.2.2-.3.6-.1h.2l.5-.4.8-1.1.2-.3.7-1.4 1.2-3.3v-.7l-.4-1.2v-1l-.2-.2-.3.1-.2-.3.1-1.3-.1-1 .6-.7.4-.8 1.1-2.1 2.4-4.4 1.3-5.3v-1.5l.5-2.7-.1-1 .4-1.6.2-2.5-.5-1.9.2-.7-.5-1.1-.5-1-.6-.9-.3-1 .4-2.1v-1.1l.7-4.1.6-1.6.1-.9v-.3L89 701l.1-.4.8-.9 1.4-.8.9-.2.2.2v1.1l.3 1.3.1.2h.7l.1.2-.4.8.1.5 1 .7.3-.2-.2-.4-.7-.1-.2-.2.5-1.5-.1-.2-.8-.2-.1-1.2-.3-1-.7-.2-.7.1-.2.1-1.4.8-.1-.1-.2-1.1-.2-.3-.3-.5-.8-.6-.1-.4.3-1.3v-1.3l.7-3.6.2-1.6.2-1.9-.2-1.2-.1-2.1-.1-1.8-.3-1.3-.1-1.4-.6-1.2-.6-.6-2.9-1.2-.8-.8-.5-.2h-1.1l-.4-.2-.1-.1-.1-.3.3-.4.9-.5.5-.5 1.3-2.3 2.7-7.2.1-.3 1.9-6.2 1.3-5.5.1-.7.3-1.8.2-4.2-.2-3.5-.1-1.1-.5-2.5-.8-4.4v-.1l-.4-1.7-1.6-3.8-.9-1.5-.7-.8-1.3-1.5-.3-.4-2.7-2.8-1.6-2.2.1-.2.4-.2.7.1.1.2-.2.5.2.2.5.1.5-.2.4.5.3.8 1 .8.7.9 1.6 1.1.8.8.3.6.6 2.2.3.6.4.4h.3l.1-.5-.9-1.6-.2-.4-.1-.8.2-.5.6-.5.6-.1.5.2.5.5.1.8.3-.1.2-.8.4-.1.7.4.1.2-.7.6-.2.3.3.3.8.4.1-.2.1-.3.2-.6.2-.3h.5l.3.5.1.1.1.2h.8l.9.6.5-.1.7-.4-.2-.5-.5-.3.4-.3-.2-.3-1.5-.6-1.4-1-1-.4-.2-.1.2-.3 1.1-.2.3-.1.3-.1-.1-.2-.7-.3v-.3l.6-.8.5-1 .1-.6.1-.6-.1-.6-1.1-1.7-.2-.7.4-2.1v-.8l-.3-.2-.3 1.4-.1.8-1.2 1.4-1 .2h-.1l-.3 1.1h.4l.7-.6.3.1.6.7.3 1.1-.2 1.6-.5.7-.7.4-1.1.1-.2-.1-.6-.2-1.2-.6-.7-.4-3.1-2.7-.9-.4-.4-.2-1.4-.3-.8.1h-.1l-.1.1-.3.2-.7.5-.5.4-.1.3-.7 1.7-.4.5-.4.2-1.3-.1-.5.3-1 .2-.4.3-1 1.6-.6.6-1 .4-.9.7h-1.3l-.4.3-.4.3-.6.2-.5.5-.6-.2-.7.1-1.4-.6-.8-.1-.4.2-.5.9-.7-.2-.8.4-.6-.2h-.6l-2.8 1.2-.3.1-.8.1-1.4-.3-.1-.4.2-.8.7-1.5.7-1 .8-1.8.2-.4v-.1l.3-1.2v-4.9l-.2-1.4-.1-.7-.3-.9-1.1-3-1-2.2-1.2-1.9-1.8-2.3-.6-.8-.5-.9.2-.3.7.6h.8l.9-.8 1.7-.2.8-.3h1.6l.4-.1h.3l.8-.2 1.4-.9.3.1.2.4-.8 1.2.3.3.5.3.6.8 2.4 1.1.2.2-.4.3h-.6l-1.2-.7-.4.1-.1.2-.4.6.2.2h1l.6.4.6 1.2h.3l.1-1.6.4-.4h.7l.4.2.2.1.5 1.1.8.5.2.5.4.4.5.8.7.6.2-.4v-.2l-.6-1.1-.2-1.1-.9-.7v-.8l-.2-.3-.6-.2-.2-.1-.6-1 .1-.2.5-.2.5-.6h.8l.9-1.1.3.1.4 1.6.2.1.7-.4h.3l.6.6h.7l.9.8.2-.1v-.2l-.4-.5-.3-.6-.5-.4-.3-.6.4-.9.1-.2.3-.3h.4l1.5.7.2-1h.3l.3.2.9.6.2-.3-.2-.3-.8-.5-.9-.3H74l-1.2-.1-1-.2-1.8.1-.4.2-.2.2-.5.7-.3.1-.3-.4.1-1.8.3-.5.5-.3 1.2-.9.9-.4.5-.8 2.9-.8.6-.8.2-.3.5-.3h.1l.7-.2h.7l.9.3-1.8-9.1-1.7 1.1-.3-.3.2-.4-.1-.2-.9-.5-.2-.6.5-1.7-.1-.5-1.2-1-.1-.6.4-1.2.1-1-.1-1.1.1-.5.2-.5-1-.2-1 1.4-.5 1.2-.1 1.2v.4l-.4.9-.8.9-.7.9-.5.2-.4.5-.4.5-1 2-.1.2-.3.7-.6 1.8-.4 2.9.1 1.4-.2 1.5-.4 1.4-1 1.9-1.1 1.5-.9.5-1.5.4-.9.7-1.2-.2-.4.1-1.1.4-2.5-.1-.8-.3-1.3-.1-.6-.1-.8.2-.3.2-.3.2h-1l-1.5.9-.5.2-.2.3-.3.4H46l-.7-.4h-.8l-1.2-1-1.7-.9-1.3-.5-.8.1-.4.4-1 1-.3-.1-.5-.5-.3-.1-1.6.1-1.5-.6-.4-.3-.3-.6.8-2.6.3-1.5-.3-.6-1-.5-.4-.4-.2-1.1-.3-.7.9-2.7.7-1.2 2.1-4.4.5-1.4 2.2-6 .3-1 .2-1-.7-2.5.1-1.1-.3-.9-.2-.6.3-1.1-.1-.7.3-1.7.1-1.9-.1-.7-.5-1.4.1-.6 1-2 .8-1.1.2-.6.2-.6 1.8-3.8.7-1.8 1.1-3.6.1-1.1.4-1.4.1-.2-.2-1 .5-1.9.1-1.2-.2-1.1-.5-.7-.2-.5-.3-.7.1-.8-.3-.6-1-1.1.2-.7-.3-1.6-.2-.4-.4-.2-1.6.1-.6-.1-.6-.5.2-.6.7-.4h.9l.7-.3.2.1.3.7.6.4h.2l.9-.1.4-.4.4-1.1.8.2h.3l.5-.3 1.8-1.1 4.2-3.4.7-1 .2.5.5.2.2 1 .6 1.1-.6.2-.1.4.2.3-.4.7.1.3h.2l.6-.7 1.1-.1.2.8.4-.1.1-.3-.4-1.1.1-.3h.7l.1-.3-.3-.4-.4-.1-.3.4-.2-.1-.7-1.5-.5-.5-1-.4v-.2l1.7-3 .2-1.1.7-.4 2.2-2.8 1.1-.9h.5l.4.8.6-.3.3-.5-.6-.5v-.9l.6-.1.3-.3.4-1 3.5-3 1.8-2.7.3-.8v-.5l-.2-.3-.6-.2v-.6l.7-3 1-4.1.7-2.4v-1.8l.4-1 .4-1 .1-.5.2-1.1.5-.8 2.6-6.5.5-1.6.1-.4.2-.3.9-1.9.6-1.8.9-2.7 2.2-5.9.1-.3.2-.4.1-.2 1-3.4 1-3 .5-1.7 1.2-4.5 1.2-2.9.1-2.9.2-.1.4.1.2.5.4.7.2.4.4.7.3.1.6-.1-.6-.5-.9-1.3v-.5l.9.1 2 .7.2.2.4.5-.1.5.3.3.9.8.6.3h.5l.4-.4.2-.5.3-.6.8-1.4-.4.1-.8 1.1-.5 1-.2.2h-.5l-.9-1.5-2.2-2-1.7.1h-.8l-.6-.2-.7-1.1-.4-.4-.7-.6-.9-.5-.7-.8-.5-.9.8-1.9.5-2 .3-.6.4-.7 1.2-2.9.2-.5 1.6-5.4.6-1.6 1.5-5.6.6-2.1.7-3.9 1.6-6.8.2-.7 2.1-8.9.5-2.7.1-.4.1-.4.4-.4h.4l.2.1-.5 1.2-.2 1.3-.4 4.1.3-.1.4-1.3v-1.1l.1-.4.4-.2v-1l.2-.9-.2-.3.8-1.1-.4-.8.9-1.3.6-.3.6.4.5.7.6 1.1 1 2v-.4l.2-1.4.9-.2.6-.5.2-1.2.5-1.4-.5.4h-.1l-.5 1.8-.4.5-1.5.2-.3-.8-.3-.9.2-.3 1.2-1.6.5-1.6.4-.4h.2l.5-.1-.2-.6-.6.1-.2-1.1-.7-.5.3-.4h1l.5-.2h.7l.5-.5 1.4.4 1.2-.4-.1-.2-.4-.2.4-.5-.4-.2-1.5.7-.7.1-1.1-.4-.8.5-.7-1.1-.2-.8.2-1.3-.1-.9-.6-.7.2-.6.6-.7.1-.2.3-.1.6-.3 1.3-1.6.9-.6.6-.2-.6-.5v-.2l-.1-.5h-.3v.4l-.4.2-.1-.6.2-1.6v-.2l-.1.1-.6 1.4v.5l.4 1-.2.5-.9.9-.3.1-.2-.3.7-2.5v-1.3l.4-1.4-.3-.5-.3 1.3-.4 2-.3.8-.3 2.6v.2l-1.2 1.4-.3 1.1-.6.5.2 1.6-.2 2.1-.1.9-1.6 1.9v2.4l-.3 1.1-1 1.6-.8.8-.7.2.2-.9.7-1.5v-.2l.7-4 .4-.9.1-1.6.7-1.6 1-3.5.1-.9 1-6.1.5-1.9 1.6-4.8.2-1.4v-1.3l.3-1.3.4-1v-2l.3-1.3v-1.1l.3-.9-.1-.5-.4-2.1-.3-1.5.1-.8-.4-1.9.1-1.2-.5-1.9v-.6l-.4-1.3-.1-1.1v-.2l.8.5h.4l.3-.2.2-.3.1-.2.1-.2.2-.4-.1-.3-.1-.1h-.5l-1.4.3-.4-.2-.6-.7-.4-.9-.1-.1-.1-.2-.8-2-.8-.7-.7-1.5.1-1.1-.7-2.6-.1-3.2-.1-1.1-.4-.8-.5-2.3.1-1.1-.1-1.2-.4-.7-.4-.5-.8-2v-.8l-.5-1.2-.4-.3-.7-1.5v-1l-.2-.6.3-.8.5-3.6.1-1-.3-1.6-.5-.8-.5-.5.2-1.4-.4-1.9.2-.8.3.3.4 1.1.6.8.7.2.7.2.6-.4-1.5-.2h-.3l-.3-.2-.5-1.5-.9-1.6-.8-3-.1-1.9-.3-1.1-.2-.6-1.2-3.4-.1-1.4-.1-1.9-.4-.6-.4-.5-.3-.2-.2-.2-1.1-1.4-.8-2-.7-3.1.3-1.2v-1.4l.4-1-.3-1v-.5l.4-.7v-.5l-.6-.8-.1-1.5.5-1 .6-2.2.2-.2.6.3.5-.1.6-.7.7-.1.3-.3v-.4l.5-1 1.6-1.3z" transform="translate(-32.1)"/>
    <path id="path113" class="cls-3" d="M1128.76 0v82.81l-2.56 4.49-1.4-.3-2.6.3-4.5 1.3-1.6.9-3.8 1.5-3.2 2.5-1 .4-1.3.9-2 2.1-2.1 2.3-1 .8-1.6.7-1 .2-2.1 1.2-1.5 1.1-.6.9-.2-.7-.4.8-.5.3-2.5.4-3 2.4-2.4 2.4-1.3 1.6-1.5.9-.7.6-.5.8-.5.3-1 1.2-.8 1.6-.5.3-.7.1-1.8-.3-3-.9-2.2-.7h-.7l-2.4 1.3-.7-.4-.6.8-.6.1-1.2-.3-.1.8-.5.5-2.5 1.6-2.7 1.9-2.1 1.9-.8.6-2.2 2.4-.6.3-1.7 2.1-1.2 1.2-1 .5-.7.7-.6 1.2-1.1.9v1.7l-2.4 4.1-.6.6-.2 1.3-.6.8-.5 1.5-1 2.9-.2 1.6-.7 1.8v1.8l-.5.7-.7-.6-.5-.9-.9-.8.1-.7-1 .8.4.7.6.8.6.6a26.84 26.84 0 0 1 2.5 1.2l.9.7v1.2l-.3 1.9-.9 5.3-.5 1.3.1 1.2-.4 3.6.3 4.8-.7.7.7.5v1.2l-.2 3.1.1 1.3-.2 2.2.1 4 .4 1.3.1 2.2.2 2.9.8.9.9.2 1.5.5.2.7.8-.1 1.8.2 1.5.9-.7.5-.3.7.6.8-.2 2 1.1-.3.6.3.8 1.3.1.7.2.8.9 1.1-.4.8-.8-.3h-2l-.8-.1h-.9l-.4.3-.4.4-.1.2-.3.2-.4-.1-.8-.2-.8-.6-.3-.1-.6-.9-1-.8-.4-.9-.3-.7-.2-.7-.2-.1h-.4l-.5.3-.8.5-.6-.1-.3-.2-2.8.8-.7-.3h-1.1l-1.9 1.1-.5.2-.9.1-2.1-.3-.8-.1-.6.1-.7.5-2.9 2.7-.7 1.5-.6.4h-1.7l-2.6-.6h-.8l-1.6.4-1 .2-1.4.9-1.5 1.5-.7.4-.3.5.4 1.4 1.2 1.3.3.6.1.4-.2.3-.5.3-1 .2-1-.1-.7-.1-2.8-.9-2.3-.4h-1l-2.1 1.3-1.1.1-.9-.2h-1.1l-.8-.5-2.6-1.4-.5-.3-.2-.4-.5-.4-1.9-2.2-5.5-1.9-1.2-.6-1.9-1.3-4.1-.5-1.6.3-.9.4-.7.6-1.1.4h-.7l-.6-.2-1.1-.4-2.1-.1-1.5 1.5-1.7 2.7-1.5 1.3-1.8 1-.9.2-.9.2-1.2.1-1.3-.1-.8-.2-.5-.5-2.2-1.1-.5-.5-.4-1 .1-1.2-.3-.9-.4-1.2-.4-.8-.1-.7-.8-1-.9-.7-1-.1-.8.4-.7-.1-3.1-1.9-1.2-1.2-1.4-.9h-4.8l-2.6-.8-.7-.6-.2-1 .2-1.5.7-2-.1-.6.1-.5.5-.8.3-.2 2.2-.6h.8l-.8-1.2-.6-.5-2.7-1.2-.2-.4.1-.5.5-.7v-.4l-.3-.2-1.2-.3-1.3-.6-.5-.7-.4-.1-1.8.7-.9.2-2.2-1h-1.2l-1.5-.4-1.9-1-.7-.8-.7-.2-2.6.6-.4-.1-1.7.4-1.1-.4-.6.1-.4.3-.6 3.8-.3.5-.7.3-.8-.1-2-4.9-2.3-3.9-1.7-1.2-.4-.5v-.7l-.9-.8h-5l-2.2.8-1.5-.5h-.7l-1.7.4-.8.3-1.4.6-.5.1-.9-.2-1.6-1.3-.7-1.3-.4-1.5-.5-.5-1.9-2.1-.9-.7-3-.1-.8-.3-2.3.2-1.3-.1-1.5-.6-.5-1.1-.6-.3-.4.1-1.3 1.1-.4.2-2.2-.8-2-1.3-3-1.5-1.6-.5-2.7-.8-1.7-.2-2.5-1.1-3.1-1.4-1.1.3-.9 1.5-.9.7.1 2.7-.2.9-1.5 1.8v.5l1.2.8-.3 1.1-.2.3-.1.6.7 1.2.1.7.1.6.6 1.2v2l.5 1.1-.1.8h-.5l-2-.8-3.2-.7-1.6.1-.6.1-4.5-.2-1 .3-.8.1-1.8-.2-3.1.3-1.7-.1-1.1-.3-1.8-1.8-1.1-.6-.7-.1-.6.3-1.9 2.6-1.4 1.3-.8.5-1.2.3-.5-.3-.7-1.4-.2-.9-.8-1.1-.8-.6-.5-.1-1.3-.2-2.1-1.4-.8-.4h-.8l-1.2.6-2.7 2.4-.7.2h-1.4l-1.8-.5-1-.1-2.2 1-1.1-.3h-.5l-1.5.9-.6.1h-.2l-.9.2-1.4-.3-1.9-.4-.3-.4-.4-1.6-.3-.6-.8-.3-1.4-.2h-.2l-.4-.2-.3-.4-.5-2.2-1.6-2.4-.2-.3-.4-1.5-.2-.6-.3-.6h-.2l-.8.8-.9.6-1.1.2-.5-.1-1.7-1-.5-.5-1.4-2.1-1 .1-1.4-.3-2.2-1.5-1.2.2-3.1 1h-.6l-.5.2-2.5 1.9-.8.3-.5.2h-1l-1.7.4h-1.2l-.4-.3-.8-1.5H758l-1-.8-.5-.1-.6.2-.9 1.2-.6 1.5-.6.7-.6.2-1.4.3-.6-.3-.4-.5-.3-1-.2-.6-1.5-.1-.4-.3-.4-1.1-.6-.9-.4-.2-2.9-3.3-1.3-1.4-1.2-.7h-1.3l-1-.5-1.3-2.4-.3-1.9-.8-2.1-.9-1.2-.8-.5-.6-.1-.5.1-1.6.8-1.1.3-3.2.2h-1.5l-1.9-.3-1.2.3-1.6.1-3-1.2-.8-.9-2.5-1.7-3.4-.1-1.2-.5-.7-.3-1-.9-1.6-1.4h-.9l-.4.8-.7.8-.5-.3-.7-1.6-.7-.5-1.3-.2-1-.4-.8-.3-.7-.5-.5-1-.9-.3-1.4.5-1.3-.2-1.3-.9-2.1-.9-.7-.6.4-1.4.7-1.3-.2-.2.1-.7.6-.5v-.4l-.4-.2-2.5 1.1-.6.5-.4 1.5-.5 4.4-.6.9-.7.8-2.4-.4-.7-.2-1.9-.5-1.5-.9-1.8-1.5-.9-1.7-.3-1.4 1.5-.7 1.7-1.4.6-.5.8-1.2.6-2.2-.1-1.1.2-1.3 1.4-1.8.4-1.5-.2-2.1.2-.8-.1-1.1-.4-1-1.4-1.3-.7-.1-1.8.1-1.4.4-.7-.1-.6-.3-2.2-2-.8-.1-2.9.2-.5.2-.5 1.5-.7 1.1-1.3.7-1.6.1-1.2-.4-.5-.4-.4-1.6v-1.9l.1-.5-.1-.7-.1-.4-.6-.3h-2.7l-1.7.2-.6.1-1.2.6-.8.3-.5-.6-.2-.7-.1-.7.1-1.1-.3-.7-.8-.1-.1-.5-.3-.4-.6.2h-.5l-.8-.4-.5-.5 1.1-1.3-.8-1 1.9-.4.5-.5.8.2h.6l.7-.5 2.7-1 1 .1.6.5h.5l.6-1.2 1.8-1.3 2.4-2 2.6-3.9.2-1.1.8-.7.5-.9.5-.2.3-.7 1.1-2.2 1.4-.3-.5-.5 3.9-7.8 1.3-2.9.2-.7.4-1.2.7-.2.5.4.5-.8-.3-1.5-.4.9-.9.4.3-3.5.4-2.2.2-2.2.8-2.3v-.7l.4-2 1.5-7.3 1-3.3 1.5-7 .2-1.1.1-1 1.1-3.9 1.6-8 1.1-4.2.6-5.6.6-2.9h.7l-.6-.6.6-2.9.1-1.6.5-1.9.2-.7-.1-1.9.5-1.1.4-2.3-.3-1.6.5-1.5.1-2.4.3-1.5m261.7 201.1v.4l.4.8.4.3.7.5.2.3.1.2.1.2-.2.4-2.8-.3-.6-.2-.9-.6.3-1.6 1.6-1.8.2-.5h.4l.4.1z" transform="translate(-32.1)"/>
  </g>
</svg>
